<svg width="306" height="310" viewBox="0 0 306 310" fill="none" xmlns="http://www.w3.org/2000/svg">
<path d="M156 68C157.804 68.2255 159.296 69 161.5 69C162.573 69 168.792 69 165 69C159.184 69 155.128 70.4483 151.222 75.2222C149.265 77.6141 162.779 78 164 78C172.889 78 165.12 81.7576 161 82C158.025 82.175 156.685 82.2455 153.944 83.4444C152.659 84.007 150.875 84.6389 149.5 84.9444C149.232 85.004 146.365 84.9576 146.444 85.2222C147.836 89.8606 158.437 89 162 89C164.411 89 172.504 92 168.778 92C163.503 92 158.509 91.8314 153.5 92.9444C150.612 93.5863 140.613 91.1214 139.111 94.5C137.56 97.9908 146.628 99 148.5 99C153.185 99 157.87 99 162.556 99C165.311 99 176.037 99.4075 170.222 105.222C167.862 107.583 159.42 106 156 106C149.073 106 143.047 103.609 136 104C134.762 104.069 133.722 107.276 134.056 108.444C134.495 109.981 139.537 110 140.778 110C148.163 110 154.824 110.219 162 111.5C165.785 112.176 177.15 113.8 167.5 115.944C162.383 117.082 155.706 117 150.444 117C144.889 117 139.333 117 133.778 117C131.165 117 126.645 117.684 131.444 119.056C137.876 120.893 146.068 120 153.111 120C158.274 120 167.379 117.974 171 122.5C171.006 122.507 165.493 123.925 164 124C160.616 124.169 157.776 126 154.5 126C148.019 126 141.537 126 135.056 126C132.37 126 129.685 126 127 126C121.65 126 133.054 129 135 129C140.807 129 149.108 130.342 154.778 128.778C158.272 127.814 170.769 124.815 173.778 127.222C178.812 131.25 167.011 131 165.222 131C157.315 131 149.407 131 141.5 131C136.185 131 130.87 131 125.556 131C120.474 131 119.644 135 125.556 135C142.006 135 157.643 137 174 137" stroke="url(#paint0_linear_14_83)" stroke-width="7" stroke-linecap="round"/>
<path d="M37 6C47.7315 6 58.9031 4 69.5556 4C83.4259 4 97.2963 4 111.167 4C140.315 4 169.463 4 198.611 4C213.185 4 227.759 4 242.333 4C247.593 4 252.852 4 258.111 4C261.241 4 264.37 4 267.5 4C270.207 4 268.946 4.75692 270.5 6C274.648 9.31851 266.253 9 264.5 9C260.028 9 256.048 10 251.556 10C241.771 10 231.54 11 221.5 11C211.13 11 201.859 9 191.444 9C187.429 9 183 10 179.5 10C173.919 10 169.389 12 163.833 12C152.185 12 140.537 12 128.889 12C115.058 12 98.0821 14.4526 84.5 11.5C74.4604 9.31749 62.6945 11 52.3889 11C46.9717 11 40.2587 10.0393 35 11.5C30.9573 12.623 26.8313 11.2798 23.5556 14.5556C19.757 18.3541 23.8596 17 28.3889 17C34.4259 17 40.463 17 46.5 17C58.1667 17 69.8333 17 81.5 17C93.9259 17 106.352 17 118.778 17C130.578 17 142.09 15 154 15C158.435 15 171.611 12.9064 173.778 17C177.021 23.1259 160.64 24 156.556 24C130.963 24 105.37 24 79.7778 24C59.688 24 39.4063 24.8585 20 26C18.7008 26.0764 11.3455 27.901 14.2222 30.7778C17.2413 33.7968 23.694 33 27.4444 33C39.2222 33 51 33 62.7778 33C84.9259 33 107.074 33 129.222 33C132.918 33 154.247 29.8088 154 34C153.686 39.3398 133.013 37.4319 129.556 38.2222C124.485 39.3813 118.62 37.7322 113.778 39.2222C108.43 40.8678 100.63 41 95 41C84.5926 41 74.1852 41 63.7778 41C54.8304 41 44.8831 40 36.5 40C32.6508 40 15.2591 37.6761 13 40.5C11.8303 41.9621 2.32112 45.1269 10.5 46.9444C14.7409 47.8869 18.5982 48 23.0556 48C36.4594 48 50.3489 49 63.9444 49C86.7778 49 109.611 49 132.444 49C135.347 49 140.094 50.9479 135.5 53.5C132.49 55.1722 125.86 54 122.5 54C117.647 54 112.261 56 107.5 56C101.981 56 96.463 56 90.9444 56C79.1264 56 67.4138 55 55.5556 55C43.6799 55 32.3151 57 20.5556 57C17.5969 57 10.738 56.514 9 59.5556C6.4051 64.0966 15.7798 63 18.5 63C27.8704 63 37.2407 63 46.6111 63C70.2214 63 93.5299 64 117.056 64C119.404 64 130.246 65 127 65C123.011 65 119.253 67 115.5 67C105.617 67 94.987 68 84.7778 68C71.8519 68 58.9259 68 46 68C35.0189 68 22.6177 66.3126 12.2222 69.7778C9.57484 70.6602 0.366921 73.3675 9.22222 74C13.5425 74.3086 17.7172 75 22.2222 75C30.3333 75 38.4444 75 46.5556 75C51.5653 75 56.0804 73 61 73C73.3333 73 85.6667 73 98 73C102.159 73 105.673 74 109.778 74C111.567 74 119.449 72.8937 120.778 74.2222C121.53 74.9747 102.666 79 100.222 79C90.4815 79 80.7407 79 71 79C59.8839 79 49.1217 82 37.7778 82C29.2593 82 20.7407 82 12.2222 82C8.8539 82 5.94435 86.8067 10.7778 87C14.1727 87.1358 17.6019 87 21 87C32.9259 87 44.8519 87 56.7778 87C69.4444 87 82.1111 87 94.7778 87C99.3259 87 103.562 89 108 89C111.794 89 114.099 90 109 90C104.6 90 100.513 91 96 91C90.7626 91 86.1008 92.745 81 93C68.7565 93.6122 56.4316 94 44 94C38.5 94 33 94 27.5 94C23.2346 94 19.347 96.0896 15.5 96.9444C13.5337 97.3814 8.28233 96.8971 7 98.5C4.67489 101.406 14.9335 102 17.5556 102C40.7222 102 63.8889 102 87.0556 102C91.1089 102 97.583 99.9523 101.444 101.056C102.954 101.487 103 103.267 103 104.5C103 106.788 100.6 105.849 98.9444 106.056C85.5039 107.736 71.6667 107 58.0556 107C51.7928 107 43.4529 105.497 37.4444 107.5C33.5917 108.784 27.4913 109 23.4444 109C20.027 109 16.3175 110 12.5556 110C5.4927 110 2.47725 112.837 12.2222 114.889C22.7935 117.114 35.7624 115 46.5556 115C57.8704 115 69.1852 115 80.5 115C84.7963 115 89.0926 115 93.3889 115C98.3015 115 94.9596 119 91.5 119C78.0608 119 64.9239 121 51.5556 121C46.1974 121 41.7515 123 36.4444 123C31.0373 123 25.4564 124 19.8889 124C16.6045 124 10.1718 122.863 7.5 125C5.19001 126.848 20.9545 128 23.5 128C29.0702 128 90 126.628 90 129.5C90 133.551 84.415 132 81.2222 132C75.7529 132 70.9648 134 65.4444 134C54.4815 134 43.5185 134 32.5556 134C26.7037 134 20.8519 134 15 134C12.8584 134 3.20663 133.852 9 136.222C15.4857 138.875 23.5904 139 30.5556 139C37.7407 139 44.8052 140 52 140C55.9259 140 59.8519 140 63.7778 140C68.1239 140 55.1239 141 50.7778 141C38.2195 141 25.5487 143.303 13 144C11.7514 144.069 10.5619 144.908 9 145C6.51103 145.146 14.3878 147.615 15.4444 147.778C22.3283 148.837 29.9423 148 36.8889 148C38.809 148 52.663 146.107 54.7778 148.222C58.4486 151.893 46.3771 152 45.5556 152C41.3203 152 37.2206 153.281 33 153.778C29.2458 154.219 24.8532 153.221 21.2222 154.222C19.2175 154.775 8.34583 153.887 8 157C7.38183 162.564 41.7061 161 47.3333 161C57.1124 161 43.2583 162.921 40.5556 163C34.1073 163.19 27.735 166 21.2222 166C16.6853 166 12.3689 166.77 8 167C1.21272 167.357 5.48988 169 10.2222 169C24.8889 169 39.5556 169 54.2222 169C58.8444 169 63.5171 169.167 68 170.222C70.1724 170.733 71.9159 170.784 72.7778 173C73.8938 175.87 66.4029 175 65.2222 175C57.3704 175 49.5185 175 41.6667 175C36.134 175 25.3289 173.091 20 175.222C16.3933 176.665 12.4172 175.666 9.22222 178.222C5.69068 181.047 23.0116 181.912 25.2222 182C37.8578 182.505 51.0654 183 63.5 183C64.3142 183 66.8889 184.725 66.8889 185.556C66.8889 187.767 60.9284 187 59.4444 187C52.0768 187 45.0647 188 37.6667 188C33.4074 188 29.1481 188 24.8889 188C22.086 188 13.0959 186.536 10.5 188.556C2.38226 194.869 15.5187 194 20.3333 194C27.7037 194 35.0741 194 42.4444 194C48.7686 194 56.2479 192.929 62.4444 194.056C64.7936 194.483 71.2203 201.352 65.8889 201.944C56.1472 203.027 46.2874 201 36.5556 201C31.5556 201 26.5556 201 21.5556 201C18.0758 201 13.5849 200.786 10.5 202.5C4.17804 206.012 17.8794 206 20.7222 206C33.9385 206 49.1541 204.49 61.5556 209C68.4058 211.491 60.3836 214 57.3889 214C50.3889 214 43.3889 214 36.3889 214C30.0741 214 23.7593 214 17.4444 214C16.8087 214 4.37456 215.713 8.66667 218.444C13.3728 221.439 28.7922 219 34.7778 219C43.174 219 51.0301 220.974 59.2778 221.944C67.505 222.912 57.6711 227 53.8889 227C45.9757 227 38.1856 226 30.5 226C25.4815 226 20.463 226 15.4444 226C14.2619 226 10.1111 225.327 10.1111 227.444C10.1111 229.048 22.3846 229 23.7222 229C31.5273 229 39.4227 229.778 47 231.5C51.3971 232.499 55.9011 233.156 60.3333 234C62.8805 234.485 52.8855 237 50.6111 237C45.2647 237 39.7546 238 34.2778 238C29.5727 238 25.1186 236.542 20.5 236.056C19.0655 235.905 5.03717 235.926 7.55556 238.444C10.1082 240.997 22.9025 239.069 26.8333 240.444C35.1087 243.341 43.2416 241.544 51.5556 243.056C54.0166 243.503 56.7482 243.777 59 244.778C59.6353 245.06 62.7757 246.854 60 247C51.4172 247.452 42.7084 247 34.1111 247C30.889 247 7.62295 244.59 8 251C8.12171 253.069 30.6398 252 33.3333 252C42.4741 252 50.7653 254 59.7778 254C64.3605 254 67.7708 258.102 61.3333 258C51.9831 257.852 42.8542 256 33.4444 256C28.1078 256 20.8621 254.77 15.7778 256.222C13.8764 256.765 11.4617 257.619 10 259C5.2052 263.528 14.0519 262 17.1111 262C24.6501 262 32.9317 261.172 40.2222 263.222C43.405 264.117 46.7694 264.115 50 264.778C54.4685 265.694 62.9337 263.857 66.7778 266.222C74.0329 270.687 49.736 266.294 41.2222 266C36.4187 265.834 31.5839 266 26.7778 266C23.2181 266 14.6519 264.185 12.2222 267.222C9.27458 270.907 29.932 271 32 271C46.3043 271 60.8149 274 75.4444 274C78.4521 274 86.828 275 86.5556 275C76.1111 275 65.6667 275 55.2222 275C41.8968 275 29.1936 274.224 16 275C15.5049 275.029 12.8627 276.529 13.2222 276.778C15.2539 278.184 22.2044 278.944 25 279C35.707 279.214 46.2462 281 57 281C64.8577 281 72.7221 280.59 80.4444 281.778C84.8324 282.453 89.5641 282 94 282C98.9832 282 103.67 283.922 108.667 284C117.92 284.145 127.189 284 136.444 284C147.756 284 158.843 287 170.111 287C208.35 287 246.931 292 285 292" stroke="url(#paint1_linear_14_83)" stroke-width="7" stroke-linecap="round"/>
<path d="M91 275C93.3795 275 94.9294 275.302 97 276.222C102.422 278.632 109.965 278.358 115.833 278.944C125.086 279.87 135.006 279 144.333 279C150.365 279 156.334 277 162.5 277C167.259 277 172.019 277 176.778 277C183.852 277 190.926 277 198 277C213.353 277 228.151 279 243.5 279C256.991 279 270.125 278 283.5 278C285.346 278 297.841 277.603 293.222 282.222C291.281 284.164 288.691 285 286 285C279.046 285 272.056 287 265 287C259.688 287 252.331 288.477 247.444 286.778C241.87 284.839 235.315 283.208 229.556 282.111C218.429 279.992 207.625 282 196.556 282C191.448 282 185.964 284 181 284C174.074 284 167.148 284 160.222 284C140.885 284 122.387 282 103 282" stroke="url(#paint2_linear_14_83)" stroke-width="7" stroke-linecap="round"/>
<path d="M109 274C118.808 274 128.193 273 137.944 273C145.943 273 153.342 271 161.333 271C169.667 271 177.974 270 186.444 270C191.856 270 198.886 267 189.556 267C181.633 267 173.494 269 165.444 269C159.444 269 153.444 269 147.444 269C143.171 269 139.833 267.494 135.889 267.056C133.863 266.83 115.796 267.408 125.111 264.444C131.986 262.257 139.343 263 146.5 263C152.667 263 158.833 263 165 263C172.692 263 179.59 261.436 187 261C188.279 260.925 191 259.85 191 258.5C191 253.851 188.2 255 184 255C177.138 255 169.371 254.269 162.778 256.222C156.629 258.044 149.412 257 143 257C141.382 257 129.007 255.795 132.222 252.222C135.664 248.398 144.593 247 149.333 247C155.815 247 162.296 247 168.778 247C175.45 247 181.858 248 188.5 248C193.863 248 196.993 241 190.056 241C180.047 241 169.923 240.748 160.111 242.5C152.638 243.834 144.241 246.342 136.556 244.944C134.252 244.526 132.748 240.767 135.222 239.778C138.376 238.516 139.893 237 143.444 237C149.781 237 156.838 236 163.5 236C169.324 236 174.936 235 180.5 235C183.464 235 184.366 234.284 186.222 232.222C188.991 229.146 185.01 230.046 182.5 229.5C173.431 227.528 162.666 229 153.333 229C144.481 229 135.63 229 126.778 229C124.019 229 121.259 229 118.5 229C116.289 229 112.982 230.214 114.778 228.778C117.035 226.972 121.914 227.712 124.889 226.556C128.032 225.333 131.739 224.061 135 223.222C147.056 220.122 161.522 222 174 222C175.287 222 190.577 223.022 185.778 218.222C181.661 214.105 163.762 217.403 158.778 218.778C151.684 220.735 141.503 219 134.222 219C126.648 219 119.074 219 111.5 219C106.218 219 105.397 214.079 110.5 212.944C121.299 210.545 132.842 212.518 143.778 210.556C149.157 209.59 156.066 209.161 161.556 209C164.487 208.914 167.259 208 170.111 208C172.416 208 188.52 209.909 184.889 203.556C183.104 200.431 157.707 203 153.944 203C146.54 203 139.056 204 131.556 204C125.37 204 119.185 204 113 204C111.972 204 107.382 204.587 107.056 203.444C106.298 200.791 105.719 199.354 108.556 197.778C116.846 193.172 127.504 195 136.778 195C143.407 195 150.037 195 156.667 195C164.524 195 172.304 196 180.222 196C187.658 196 185.242 191 179 191C161.815 191 144.63 191 127.444 191C121.666 191 113.186 192.437 108.056 189.444C105.05 187.691 107.899 185 110.222 185C114.226 185 118.347 185.263 122.333 184.944C140.339 183.504 158.369 185 176.444 185C178.243 185 182.264 185.811 183.222 184C183.701 183.096 185.027 178.42 183.389 178.056C179.199 177.124 173.293 177.126 169 177C164.491 176.867 159.954 177 155.444 177C145.444 177 135.444 177 125.444 177C123.403 177 110.8 180.049 110.056 177.444C106.489 164.961 136.647 169 142 169C149.736 169 157.158 171 165 171C170 171 175 171 180 171C183.909 171 175.79 169.449 174.556 169C171.858 168.019 169.705 168 166.778 168C157.593 168 148.407 168 139.222 168C129.231 168 119.18 167 109 167" stroke="url(#paint3_linear_14_83)" stroke-width="7" stroke-linecap="round"/>
<path d="M274 299C267.809 299 261.863 299.607 255.778 300C248.562 300.466 243.132 304 235.556 304C215.345 304 195.043 304.046 175 305C156.462 305.883 137.778 304.588 119.222 305C102.041 305.382 84.9368 307.093 68 303.222C58.9261 301.148 48.4823 302.272 39.2222 302C36.7306 301.927 33 300.75 33 298C33 295.06 35.9111 296 38.2222 296C58.4074 296 78.5926 296 98.7778 296C145.474 296 191.891 297 238.444 297C246.545 297 254.589 295.393 262.556 293.944C264.06 293.671 269.642 291.865 265.5 290.944C261.13 289.973 256.966 290 252.333 290C239.759 290 227.185 290 214.611 290C201.052 290 187.867 294 174.556 294C163.444 294 152.2 295 141 295C128.99 295 115.781 295.345 104.056 293C94.2876 291.046 83.9363 291 73.9444 291C66.6237 291 56.1515 292.717 49.0556 290.5C42.4345 288.431 33.5896 289 26.5 289C25.3657 289 20.1111 289.41 20.1111 287.444C20.1111 284.356 26.3234 284.819 28.1111 284.5C39.1771 282.524 51.5549 283.716 62.7778 283.056C74.7598 282.351 87.7744 283.856 99.5556 281.5C111.438 279.124 125.407 281 137.556 281C150.222 281 162.889 281 175.556 281C187.685 281 199.815 281 211.944 281C221.131 281 230.653 279 240 279" stroke="url(#paint4_linear_14_83)" stroke-width="7" stroke-linecap="round"/>
<path d="M244 273C254.678 273 265.196 271 276 271C281.164 271 286.721 271.583 291.833 270.944C293.07 270.79 297.618 266.242 295.444 265C292.263 263.182 288.379 263 284.778 263C275.556 263 266.333 263 257.111 263C247.284 263 253.174 261.012 258.444 258C262.575 255.64 270.478 256 275.444 256C281.011 256 285.963 255.082 291.444 254.222C294.173 253.794 296.783 253.705 299.444 252.944C301.274 252.422 295.789 251 295 251C282.667 251 270.333 251 258 251C255.03 251 251.214 251.516 249.222 248.778C246.537 245.086 252.334 242 255 242C266.351 242 277.455 244 289 244C291.533 244 294.97 244.786 296.778 242.778C299.804 239.416 298.007 239 294 239C286.629 239 279.262 238 272 238C266.864 238 260.635 237.734 255.5 236.944C252.761 236.523 247.347 236.69 245.222 234.778C241.62 231.536 250.038 231.071 252.444 231C263.538 230.674 274.368 231 285.5 231C288.32 231 291.184 231.148 294 231C295.047 230.945 303.996 226.32 301.556 225.222C297.8 223.532 290.525 225 286.444 225C282.953 225 279.312 225.292 275.833 224.944C268.144 224.176 261.19 223 253.389 223C249.193 223 244.863 222.06 241.556 220.222C235.599 216.913 250.923 218 253 218C264.684 218 278.905 220.025 290.333 217.444C291.773 217.119 300.279 214.977 298 213.778C293.346 211.328 284.111 209.205 278.778 209C269.715 208.651 260.574 209 251.5 209C248.578 209 245.684 209.352 243 208.222C241.367 207.535 238.367 207.385 236.556 207.056C235.32 206.831 234.007 205.117 236 205C247.646 204.315 258.987 199 270.889 199C279.339 199 288.812 199.535 296.778 196.778C306.405 193.445 286.944 194 284.944 194C276.759 194 268.574 194 260.389 194C255.185 194 249.981 194 244.778 194C242.114 194 237.46 194.871 235 193.778C232.614 192.717 229.593 190.796 233.667 190.056C239.7 188.959 246.429 188 252.556 188C264.628 188 279.192 188.174 291 185.222C292.086 184.951 300.309 181.365 297.833 181.056C289.848 180.057 280.972 180 272.944 180C263.935 180 254.472 179 245.778 179C242.83 179 224.558 179.737 225.056 177.5C226.086 172.865 246.487 175.29 251.222 174.778C260.03 173.826 269.155 173 278 173C285.61 173 292.11 170.511 298.444 167.056C300.642 165.857 289.124 164.748 287.722 164.556C284.181 164.069 280.778 164 277.222 164C272.63 164 268.037 164 263.444 164C254.426 164 245.407 164 236.389 164C228.876 164 224.63 161.896 235.444 159.444C241.525 158.066 248.383 158.879 254.556 158.056C261.524 157.126 268.973 159.135 275.667 157.222C278.34 156.458 281.317 157.287 284.056 156.944C286.173 156.68 287.975 155.225 290 155C291.558 154.827 299.661 150.294 296.556 150.056C286.157 149.256 273.939 150.927 263.556 152.5C251.442 154.335 238.284 153 226 153C220.382 153 224.68 150.05 226.056 148.444C228.786 145.259 237.412 147 241.167 147C248.916 147 256.699 147.215 264.444 147C270.058 146.844 279.722 146.637 284.667 144C288.18 142.126 292.701 143.578 295 139.556C295.253 139.114 298.407 137.68 297.778 137.222C295.146 135.308 286.245 137 282.944 137C269.037 137 255.13 137 241.222 137C238.986 137 221.527 137.879 222.056 135.5C222.467 133.65 230.227 131.049 232 131C238.762 130.812 245.648 129 252.444 129C264.352 129 276.064 129.597 287.5 127.056C290.176 126.461 294.176 127.268 296.222 125.222C300.456 120.989 285.599 123 282.778 123C266.519 123 250.259 123 234 123C229.271 123 224.868 122.186 220.222 122C216.427 121.848 223.676 118.051 225.444 118C233.665 117.765 241.827 116 250.222 116C259.554 116 268.569 115.782 277.778 114.944C282.379 114.526 286.509 113.264 291 113C292.081 112.936 299.555 109.68 298.333 109.222C292.829 107.158 283.294 109 277.556 109C270.722 109 263.889 109 257.056 109C246.502 109 235.871 110 225.222 110C220.487 110 220 110.203 220 105.5C220 102.355 228.34 101.215 230.333 101.056C244.319 99.9367 259.524 100 273.556 100C278.981 100 284.407 100 289.833 100C291.076 100 300.5 97.8003 298.722 96.5556C295.424 94.2471 287.87 94.2099 283.889 93.9444C276.969 93.4831 270.169 93 263.222 93C256.667 93 250.111 93 243.556 93C240.16 93 216.504 94.9876 218.056 89.5556C219.009 86.2174 233.212 86.7799 236 86.2222C244.086 84.6049 252.801 86.534 261 85.2222C273.44 83.2318 286.315 83.7633 298.5 81.0556C300.667 80.574 300.124 79.2418 297.889 79.0556C290.162 78.4117 282.193 79 274.444 79C264.877 79 255.492 78 246 78C236 78 226 78 216 78C209.928 78 218.248 73.0257 219.556 72.4444C225.889 69.6295 234.654 71 241.444 71C249.773 71 259.149 72.2121 267.389 70.9444C271.596 70.2972 276.282 69 280.611 69C284.925 69 288.982 67 293.222 67C295.375 67 296.537 66.4917 298.5 66.0556C299.587 65.8139 289.816 66 287.889 66C272.114 66 256.39 67 240.556 67C235.037 67 229.519 67 224 67C220.331 67 216 68.5032 216 64" stroke="url(#paint5_linear_14_83)" stroke-width="7" stroke-linecap="round"/>
<path d="M282 10C265.614 10 249.853 14 233.5 14C223.723 14 214.126 13 204.444 13C201.164 13 195 11.3848 195 16C195 21.6328 210.722 19.0556 214.167 18.5C225.324 16.7005 236.973 16.6063 248 14.2222C253.304 13.0754 259.033 13.0395 264.444 12.0556C268.477 11.3223 273.113 12 277.222 12C280.794 12 285.382 11.9561 287 16C288.33 19.3239 282.793 19.792 279.778 20C274.024 20.3968 268.192 21.3431 262.444 22C255.593 22.783 248.584 22.3296 241.778 23.2222C231.347 24.5902 220.078 26 209.611 26C208.561 26 205.706 25.5141 205.111 26.5556C203.81 28.8317 211.015 28 212 28C216.853 28 222.08 28.4904 226.833 27.5C234.17 25.9715 242.018 26.8988 249.444 25.7778C257.006 24.6364 263.676 24 271.444 24C277.719 24 290 18.7277 290 28.5C290 42.131 226.815 28.7503 216 31.2222C212.872 31.9372 209.046 32.5141 207.056 35.5C203.306 41.1243 217.338 36.054 219.444 36C234.692 35.609 249.894 35 265.222 35C274.698 35 285.159 34.0045 294.389 36.0556C295.497 36.3017 295.919 38.6809 296.556 39.5C299.084 42.7506 295.254 42 292.444 42C286.568 42 280.688 41 274.944 41C254.186 41 233.779 42.2675 213.556 45.9444C212.986 46.0479 204.741 47.3202 209.111 47.9444C216.578 49.0111 225.356 47 233 47C244.55 47 255.845 46 267.444 46C276.63 46 285.815 46 295 46C306.901 46 295.528 53 289.778 53C268.441 53 247.844 57 226.5 57C221.515 57 215.353 55.9138 210.556 57.2222C203.844 59.0527 218.099 58 220.056 58C230.468 58 240.152 56 250.556 56C257.435 56 263.787 56.9116 270.5 57.9444C274.587 58.5732 277.908 60 282 60C285.685 60 289.37 60 293.056 60C301.038 60 288.156 61.918 285.778 62C269.751 62.5527 252.046 61.1405 236.222 63.7778C232.698 64.3652 214.462 64.0763 213 67" stroke="#0788FF" stroke-width="7" stroke-linecap="round"/>
<defs>
<linearGradient id="paint0_linear_14_83" x1="128.965" y1="108" x2="157.258" y2="131" gradientUnits="userSpaceOnUse">
<stop offset="0.221516" stop-color="#0788FF"/>
<stop offset="1" stop-color="#045299"/>
</linearGradient>
<linearGradient id="paint1_linear_14_83" x1="22.6277" y1="4" x2="266.845" y2="292" gradientUnits="userSpaceOnUse">
<stop offset="0.25788" stop-color="#0788FF"/>
<stop offset="1" stop-color="#045299"/>
</linearGradient>
<linearGradient id="paint2_linear_14_83" x1="91" y1="281.298" x2="294.24" y2="281.298" gradientUnits="userSpaceOnUse">
<stop offset="0.152529" stop-color="#0788FF"/>
<stop offset="0.413305" stop-color="#045299"/>
</linearGradient>
<linearGradient id="paint3_linear_14_83" x1="100.059" y1="170.723" x2="168.214" y2="265.277" gradientUnits="userSpaceOnUse">
<stop offset="0.260737" stop-color="#0788FF"/>
<stop offset="1" stop-color="#045299"/>
</linearGradient>
<linearGradient id="paint4_linear_14_83" x1="20.1111" y1="292.353" x2="274" y2="292.353" gradientUnits="userSpaceOnUse">
<stop offset="0.346171" stop-color="#0788FF"/>
<stop offset="0.491904" stop-color="#045299"/>
</linearGradient>
<linearGradient id="paint5_linear_14_83" x1="219.464" y1="64" x2="296.318" y2="273" gradientUnits="userSpaceOnUse">
<stop stop-color="#0788FF"/>
<stop offset="1" stop-color="#045299"/>
</linearGradient>
</defs>
</svg>
