<svg width="213" height="113" viewBox="0 0 213 113" fill="none" xmlns="http://www.w3.org/2000/svg">
<rect y="9" width="213" height="98" fill="#525252"/>
<rect x="13" y="21" width="90" height="92" fill="#"/>
<rect x="103" width="97" height="96" fill="#F5F5F5" fill-opacity="0.960784"/>
<mask id="path-4-outside-1_4_84" maskUnits="userSpaceOnUse" x="38" y="34.8544" width="48" height="67" fill="black">
<rect fill="white" x="38" y="34.8544" width="48" height="67"/>
<path d="M76.29 37.6344C75.99 40.8144 75.84 44.1744 75.84 47.7144C75.84 62.2944 78.54 79.6044 83.94 99.6444C83.76 99.7644 83.52 99.8544 83.22 99.9144C81.66 99.9144 80.49 99.4644 79.71 98.5644C77.67 94.2444 75.45 87.8844 73.05 79.4844C68.97 80.1444 65.16 80.4744 61.62 80.4744C58.14 80.4744 55.71 80.4144 54.33 80.2944C51.51 86.1744 48.36 92.2644 44.88 98.5644C43.8 99.4644 42.69 99.9144 41.55 99.9144C40.41 99.9144 39.84 99.8244 39.84 99.6444C42.12 95.1444 45.12 88.4544 48.84 79.5744C48.12 79.4544 46.98 79.2144 45.42 78.8544C44.52 77.8944 44.07 76.5744 44.07 74.8944C44.07 74.4744 44.16 74.2644 44.34 74.2644C44.52 74.2644 44.88 74.3544 45.42 74.5344C46.68 74.8944 48.36 75.1944 50.46 75.4344C56.22 61.3344 60.21 49.9044 62.43 41.1444L72.33 35.9244C74.01 35.9244 75.33 36.4944 76.29 37.6344ZM56.49 75.7044C62.13 75.5844 67.14 74.8944 71.52 73.6344C69.06 64.3344 67.5 56.4144 66.84 49.8744C63.42 59.2944 59.97 67.9044 56.49 75.7044Z"/>
</mask>
<path d="M76.29 37.6344C75.99 40.8144 75.84 44.1744 75.84 47.7144C75.84 62.2944 78.54 79.6044 83.94 99.6444C83.76 99.7644 83.52 99.8544 83.22 99.9144C81.66 99.9144 80.49 99.4644 79.71 98.5644C77.67 94.2444 75.45 87.8844 73.05 79.4844C68.97 80.1444 65.16 80.4744 61.62 80.4744C58.14 80.4744 55.71 80.4144 54.33 80.2944C51.51 86.1744 48.36 92.2644 44.88 98.5644C43.8 99.4644 42.69 99.9144 41.55 99.9144C40.41 99.9144 39.84 99.8244 39.84 99.6444C42.12 95.1444 45.12 88.4544 48.84 79.5744C48.12 79.4544 46.98 79.2144 45.42 78.8544C44.52 77.8944 44.07 76.5744 44.07 74.8944C44.07 74.4744 44.16 74.2644 44.34 74.2644C44.52 74.2644 44.88 74.3544 45.42 74.5344C46.68 74.8944 48.36 75.1944 50.46 75.4344C56.22 61.3344 60.21 49.9044 62.43 41.1444L72.33 35.9244C74.01 35.9244 75.33 36.4944 76.29 37.6344ZM56.49 75.7044C62.13 75.5844 67.14 74.8944 71.52 73.6344C69.06 64.3344 67.5 56.4144 66.84 49.8744C63.42 59.2944 59.97 67.9044 56.49 75.7044Z" fill="#F5F5F5" fill-opacity="0.960784"/>
<path d="M76.29 37.6344L77.2856 37.7283L77.325 37.3109L77.0549 36.9902L76.29 37.6344ZM83.94 99.6444L84.4947 100.476L85.0925 100.078L84.9056 99.3842L83.94 99.6444ZM83.22 99.9144V100.914H83.319L83.4161 100.895L83.22 99.9144ZM79.71 98.5644L78.8058 98.9914L78.8644 99.1156L78.9543 99.2193L79.71 98.5644ZM73.05 79.4844L74.0115 79.2097L73.7674 78.3553L72.8903 78.4972L73.05 79.4844ZM54.33 80.2944L54.4166 79.2981L53.7275 79.2382L53.4283 79.862L54.33 80.2944ZM44.88 98.5644L45.5202 99.3326L45.6645 99.2123L45.7553 99.0479L44.88 98.5644ZM39.84 99.6444L38.948 99.1924L38.84 99.4055V99.6444H39.84ZM48.84 79.5744L49.7623 79.9608L50.2504 78.7957L49.0044 78.588L48.84 79.5744ZM45.42 78.8544L44.6905 79.5383L44.8986 79.7603L45.1951 79.8288L45.42 78.8544ZM45.42 74.5344L45.1038 75.4831L45.1244 75.4899L45.1453 75.4959L45.42 74.5344ZM50.46 75.4344L50.3465 76.4279L51.0992 76.5139L51.3857 75.8126L50.46 75.4344ZM62.43 41.1444L61.9636 40.2598L61.57 40.4674L61.4606 40.8987L62.43 41.1444ZM72.33 35.9244V34.9244H72.0825L71.8636 35.0398L72.33 35.9244ZM56.49 75.7044L55.5768 75.2969L54.934 76.7377L56.5113 76.7042L56.49 75.7044ZM71.52 73.6344L71.7965 74.5954L72.737 74.3248L72.4868 73.3787L71.52 73.6344ZM66.84 49.8744L67.8349 49.774L65.9 49.5331L66.84 49.8744ZM75.2944 37.5405C74.9912 40.7548 74.84 44.1463 74.84 47.7144H76.84C76.84 44.2024 76.9888 40.874 77.2856 37.7283L75.2944 37.5405ZM74.84 47.7144C74.84 62.4106 77.5604 79.8124 82.9744 99.9046L84.9056 99.3842C79.5196 79.3964 76.84 62.1781 76.84 47.7144H74.84ZM83.3853 98.8123C83.3491 98.8365 83.2449 98.8896 83.0239 98.9338L83.4161 100.895C83.7951 100.819 84.171 100.692 84.4947 100.476L83.3853 98.8123ZM83.22 98.9144C81.8544 98.9144 81.001 98.5271 80.4657 97.9095L78.9543 99.2193C79.979 100.402 81.4656 100.914 83.22 100.914V98.9144ZM80.6143 98.1374C78.6091 93.8912 76.4067 87.5927 74.0115 79.2097L72.0885 79.7591C74.4933 88.1761 76.7309 94.5976 78.8058 98.9914L80.6143 98.1374ZM72.8903 78.4972C68.8546 79.1501 65.0985 79.4744 61.62 79.4744V81.4744C65.2215 81.4744 69.0854 81.1387 73.2097 80.4716L72.8903 78.4972ZM61.62 79.4744C58.1386 79.4744 55.7483 79.4139 54.4166 79.2981L54.2434 81.2906C55.6717 81.4148 58.1414 81.4744 61.62 81.4744V79.4744ZM53.4283 79.862C50.6174 85.723 47.4763 91.7959 44.0047 98.0809L45.7553 99.0479C49.2437 92.7328 52.4026 86.6258 55.2317 80.7268L53.4283 79.862ZM44.2398 97.7962C43.2962 98.5825 42.4053 98.9144 41.55 98.9144V100.914C42.9747 100.914 44.3038 100.346 45.5202 99.3326L44.2398 97.7962ZM41.55 98.9144C40.9922 98.9144 40.6285 98.8915 40.4235 98.8591C40.3109 98.8414 40.3162 98.8309 40.375 98.8588C40.4058 98.8734 40.506 98.9237 40.6083 99.0368C40.7251 99.1659 40.84 99.3754 40.84 99.6444H38.84C38.84 100.308 39.3742 100.598 39.5188 100.666C39.7201 100.762 39.9391 100.807 40.1115 100.835C40.4765 100.892 40.9678 100.914 41.55 100.914V98.9144ZM40.732 100.096C43.0287 95.5635 46.0398 88.8469 49.7623 79.9608L47.9177 79.188C44.2002 88.0618 41.2113 94.7252 38.948 99.1924L40.732 100.096ZM49.0044 78.588C48.317 78.4734 47.2026 78.2395 45.6449 77.88L45.1951 79.8288C46.7574 80.1893 47.923 80.4353 48.6756 80.5608L49.0044 78.588ZM46.1495 78.1704C45.4675 77.443 45.07 76.3933 45.07 74.8944H43.07C43.07 76.7554 43.5725 78.3458 44.6905 79.5383L46.1495 78.1704ZM45.07 74.8944C45.07 74.8227 45.074 74.78 45.0768 74.7602C45.0801 74.7371 45.0793 74.763 45.0566 74.8158C45.034 74.8685 44.973 74.9864 44.8358 75.0931C44.6844 75.2109 44.5049 75.2644 44.34 75.2644V73.2644C44.0851 73.2644 43.8269 73.3441 43.6079 73.5144C43.4032 73.6736 43.286 73.8702 43.2184 74.028C43.0923 74.322 43.07 74.6435 43.07 74.8944H45.07ZM44.34 75.2644C44.3009 75.2644 44.3366 75.2606 44.5025 75.302C44.6483 75.3385 44.8467 75.3974 45.1038 75.4831L45.7362 73.5857C45.4533 73.4914 45.2017 73.4153 44.9875 73.3617C44.7934 73.3132 44.5591 73.2644 44.34 73.2644V75.2644ZM45.1453 75.4959C46.48 75.8773 48.2207 76.185 50.3465 76.4279L50.5735 74.4409C48.4993 74.2038 46.88 73.9115 45.6947 73.5729L45.1453 75.4959ZM51.3857 75.8126C57.1532 61.6944 61.1628 50.2153 63.3994 41.39L61.4606 40.8987C59.2572 49.5934 55.2868 60.9744 49.5343 75.0562L51.3857 75.8126ZM62.8964 42.029L72.7964 36.809L71.8636 35.0398L61.9636 40.2598L62.8964 42.029ZM72.33 36.9244C73.7572 36.9244 74.7807 37.3945 75.5251 38.2785L77.0549 36.9902C75.8793 35.5943 74.2628 34.9244 72.33 34.9244V36.9244ZM56.5113 76.7042C62.2181 76.5827 67.3165 75.8842 71.7965 74.5954L71.2435 72.6734C66.9635 73.9046 62.0419 74.586 56.4687 74.7046L56.5113 76.7042ZM72.4868 73.3787C70.0347 64.1085 68.4878 56.2436 67.8349 49.774L65.8451 49.9748C66.5122 56.5852 68.0853 64.5602 70.5533 73.8901L72.4868 73.3787ZM65.9 49.5331C62.4868 58.9345 59.0456 67.522 55.5768 75.2969L57.4032 76.1118C60.8944 68.2868 64.3532 59.6543 67.78 50.2156L65.9 49.5331Z" fill="black" mask="url(#path-4-outside-1_4_84)"/>
<mask id="path-6-outside-2_4_84" maskUnits="userSpaceOnUse" x="110" y="24" width="85" height="53" fill="black">
<rect fill="white" x="110" y="24" width="85" height="53"/>
<path d="M120.062 26.5625C120.896 26.7292 122.042 27.2292 123.5 28.0625C124.958 28.8542 126.417 29.7708 127.875 30.8125C129.375 31.8125 130.688 32.8125 131.812 33.8125C132.938 34.7708 133.604 35.4583 133.812 35.875C133.979 36.2917 134.042 37.0625 134 38.1875C133.958 39.3125 133.833 40.6875 133.625 42.3125C133.417 43.8958 133.146 45.6458 132.812 47.5625C132.479 49.4792 132.104 51.4167 131.688 53.375C131.271 55.2917 130.812 57.1667 130.312 59C129.854 60.7917 129.375 62.375 128.875 63.75C128.667 64.4167 128.208 65.1458 127.5 65.9375C126.792 66.7292 125.958 67.5208 125 68.3125C124.042 69.0625 123.021 69.7708 121.938 70.4375C120.896 71.1042 119.896 71.6667 118.938 72.125C118.021 72.5833 117.188 72.8958 116.438 73.0625C115.729 73.2292 115.25 73.1875 115 72.9375C114.75 72.6875 114.479 71.8958 114.188 70.5625C113.938 69.1875 113.688 67.4792 113.438 65.4375C113.188 63.3542 112.958 61.0417 112.75 58.5C112.542 55.9167 112.354 53.2917 112.188 50.625C112.021 47.9583 111.875 45.3542 111.75 42.8125C111.667 40.2292 111.604 37.9167 111.562 35.875C111.562 33.7917 111.604 32.0625 111.688 30.6875C111.771 29.2708 111.917 28.4167 112.125 28.125C112.292 27.9167 112.708 27.7083 113.375 27.5C114.083 27.2917 114.854 27.1042 115.688 26.9375C116.562 26.7708 117.417 26.6458 118.25 26.5625C119.083 26.4792 119.688 26.4792 120.062 26.5625ZM119.688 34.5C119.396 34.7083 119.188 35.3542 119.062 36.4375C118.938 37.4792 118.833 38.75 118.75 40.25C118.708 41.7083 118.688 43.2708 118.688 44.9375C118.688 46.6042 118.667 48.125 118.625 49.5C118.542 53.0833 118.5 55.9167 118.5 58C118.542 60.0417 118.583 61.5833 118.625 62.625C118.708 63.625 118.812 64.2708 118.938 64.5625C119.062 64.8125 119.229 64.9375 119.438 64.9375C119.604 64.9375 119.875 64.8125 120.25 64.5625C120.667 64.3125 121.104 64 121.562 63.625C122.021 63.25 122.458 62.8542 122.875 62.4375C123.292 61.9792 123.583 61.5833 123.75 61.25C123.917 60.9167 124.125 60.2708 124.375 59.3125C124.625 58.3125 124.875 57.1667 125.125 55.875C125.375 54.5417 125.625 53.1458 125.875 51.6875C126.125 50.1875 126.333 48.7708 126.5 47.4375C126.708 46.0625 126.854 44.8542 126.938 43.8125C127.062 42.7292 127.125 41.9583 127.125 41.5C127.083 40.625 126.729 39.7292 126.062 38.8125C125.396 37.8958 124.625 37.0833 123.75 36.375C122.917 35.6667 122.083 35.125 121.25 34.75C120.458 34.375 119.938 34.2917 119.688 34.5ZM161.962 37.1875C161.796 37.3958 160.775 37.4167 158.9 37.25C157.025 37.0833 154.067 36.8125 150.025 36.4375C150.025 37.8125 150.025 39.5 150.025 41.5C150.067 43.5 150.067 45.6458 150.025 47.9375C153.15 48.2292 155.587 48.5 157.337 48.75C159.087 49 160.004 49.1667 160.087 49.25C160.254 49.4167 160.317 49.7708 160.275 50.3125C160.233 50.8125 160.129 51.375 159.962 52C159.796 52.625 159.587 53.2292 159.337 53.8125C159.087 54.3542 158.837 54.7083 158.587 54.875C158.379 54.9583 157.546 55.0833 156.087 55.25C154.671 55.375 152.65 55.5 150.025 55.625C150.025 57.4167 150.004 59.1875 149.962 60.9375C149.962 62.6875 149.942 64.2917 149.9 65.75C153.942 65.7917 156.879 65.875 158.712 66C160.587 66.0833 161.608 66.2083 161.775 66.375C161.942 66.5833 161.942 66.9792 161.775 67.5625C161.65 68.1458 161.421 68.7708 161.087 69.4375C160.796 70.0625 160.462 70.6875 160.087 71.3125C159.754 71.9375 159.483 72.375 159.275 72.625C159.192 72.7083 158.692 72.75 157.775 72.75C156.858 72.7083 155.837 72.6458 154.712 72.5625C153.587 72.4792 152.504 72.3958 151.462 72.3125C150.421 72.1875 149.733 72.0833 149.4 72C148.775 71.7917 148.108 71.4583 147.4 71C146.692 70.5 146.129 69.875 145.712 69.125C145.629 68.9167 145.483 68.2292 145.275 67.0625C145.108 65.8542 144.921 64.3333 144.712 62.5C144.504 60.6667 144.296 58.6042 144.087 56.3125C143.879 54.0208 143.671 51.6875 143.462 49.3125C143.254 46.9375 143.067 44.6042 142.9 42.3125C142.733 40.0208 142.587 37.9583 142.462 36.125C142.379 34.25 142.337 32.7083 142.337 31.5C142.337 30.25 142.4 29.5 142.525 29.25C142.65 28.9167 143.233 28.6667 144.275 28.5C145.317 28.3333 146.567 28.2292 148.025 28.1875C149.483 28.1042 151.046 28.0833 152.712 28.125C154.421 28.1667 156.004 28.25 157.462 28.375C158.921 28.4583 160.15 28.5833 161.15 28.75C162.15 28.875 162.712 29 162.837 29.125C163.004 29.3333 163.087 29.8125 163.087 30.5625C163.129 31.3125 163.087 32.1458 162.962 33.0625C162.879 33.9375 162.733 34.7917 162.525 35.625C162.358 36.4167 162.171 36.9375 161.962 37.1875ZM177.55 67C176.758 64.2917 175.904 61.1042 174.987 57.4375C174.196 54.3125 173.279 50.5 172.237 46C171.196 41.5 170.092 36.3333 168.925 30.5C168.925 30.0833 169.154 29.6042 169.612 29.0625C170.071 28.4792 170.612 27.9375 171.237 27.4375C171.904 26.9375 172.592 26.5 173.3 26.125C174.008 25.75 174.612 25.5625 175.112 25.5625C175.404 25.8958 175.8 27.3125 176.3 29.8125C176.508 30.8958 176.758 32.25 177.05 33.875C177.383 35.5 177.737 37.5208 178.112 39.9375C178.487 42.3125 178.904 45.1042 179.362 48.3125C179.821 51.5208 180.342 55.25 180.925 59.5C181.342 56.625 181.758 53.9167 182.175 51.375C182.592 48.7917 182.967 46.5 183.3 44.5C183.717 42.2083 184.092 40.0833 184.425 38.125C184.592 36.9167 184.779 35.6458 184.987 34.3125C185.237 32.9375 185.487 31.6875 185.737 30.5625C185.987 29.4375 186.237 28.5 186.487 27.75C186.779 27 187.092 26.625 187.425 26.625C187.717 26.5833 188.196 26.625 188.862 26.75C189.571 26.875 190.258 27.0625 190.925 27.3125C191.592 27.5208 192.175 27.7708 192.675 28.0625C193.217 28.3542 193.487 28.6458 193.487 28.9375C193.487 29.1042 193.321 29.8958 192.987 31.3125C192.696 32.7292 192.258 34.5417 191.675 36.75C191.133 38.9167 190.508 41.375 189.8 44.125C189.133 46.875 188.404 49.6875 187.612 52.5625C186.862 55.3958 186.112 58.1667 185.362 60.875C184.612 63.5833 183.925 66 183.3 68.125C182.675 70.2083 182.133 71.8958 181.675 73.1875C181.258 74.4792 180.967 75.125 180.8 75.125C180.633 75.125 180.196 74.3958 179.487 72.9375C178.779 71.4375 178.133 69.4583 177.55 67Z"/>
</mask>
<path d="M120.062 26.5625C120.896 26.7292 122.042 27.2292 123.5 28.0625C124.958 28.8542 126.417 29.7708 127.875 30.8125C129.375 31.8125 130.688 32.8125 131.812 33.8125C132.938 34.7708 133.604 35.4583 133.812 35.875C133.979 36.2917 134.042 37.0625 134 38.1875C133.958 39.3125 133.833 40.6875 133.625 42.3125C133.417 43.8958 133.146 45.6458 132.812 47.5625C132.479 49.4792 132.104 51.4167 131.688 53.375C131.271 55.2917 130.812 57.1667 130.312 59C129.854 60.7917 129.375 62.375 128.875 63.75C128.667 64.4167 128.208 65.1458 127.5 65.9375C126.792 66.7292 125.958 67.5208 125 68.3125C124.042 69.0625 123.021 69.7708 121.938 70.4375C120.896 71.1042 119.896 71.6667 118.938 72.125C118.021 72.5833 117.188 72.8958 116.438 73.0625C115.729 73.2292 115.25 73.1875 115 72.9375C114.75 72.6875 114.479 71.8958 114.188 70.5625C113.938 69.1875 113.688 67.4792 113.438 65.4375C113.188 63.3542 112.958 61.0417 112.75 58.5C112.542 55.9167 112.354 53.2917 112.188 50.625C112.021 47.9583 111.875 45.3542 111.75 42.8125C111.667 40.2292 111.604 37.9167 111.562 35.875C111.562 33.7917 111.604 32.0625 111.688 30.6875C111.771 29.2708 111.917 28.4167 112.125 28.125C112.292 27.9167 112.708 27.7083 113.375 27.5C114.083 27.2917 114.854 27.1042 115.688 26.9375C116.562 26.7708 117.417 26.6458 118.25 26.5625C119.083 26.4792 119.688 26.4792 120.062 26.5625ZM119.688 34.5C119.396 34.7083 119.188 35.3542 119.062 36.4375C118.938 37.4792 118.833 38.75 118.75 40.25C118.708 41.7083 118.688 43.2708 118.688 44.9375C118.688 46.6042 118.667 48.125 118.625 49.5C118.542 53.0833 118.5 55.9167 118.5 58C118.542 60.0417 118.583 61.5833 118.625 62.625C118.708 63.625 118.812 64.2708 118.938 64.5625C119.062 64.8125 119.229 64.9375 119.438 64.9375C119.604 64.9375 119.875 64.8125 120.25 64.5625C120.667 64.3125 121.104 64 121.562 63.625C122.021 63.25 122.458 62.8542 122.875 62.4375C123.292 61.9792 123.583 61.5833 123.75 61.25C123.917 60.9167 124.125 60.2708 124.375 59.3125C124.625 58.3125 124.875 57.1667 125.125 55.875C125.375 54.5417 125.625 53.1458 125.875 51.6875C126.125 50.1875 126.333 48.7708 126.5 47.4375C126.708 46.0625 126.854 44.8542 126.938 43.8125C127.062 42.7292 127.125 41.9583 127.125 41.5C127.083 40.625 126.729 39.7292 126.062 38.8125C125.396 37.8958 124.625 37.0833 123.75 36.375C122.917 35.6667 122.083 35.125 121.25 34.75C120.458 34.375 119.938 34.2917 119.688 34.5ZM161.962 37.1875C161.796 37.3958 160.775 37.4167 158.9 37.25C157.025 37.0833 154.067 36.8125 150.025 36.4375C150.025 37.8125 150.025 39.5 150.025 41.5C150.067 43.5 150.067 45.6458 150.025 47.9375C153.15 48.2292 155.587 48.5 157.337 48.75C159.087 49 160.004 49.1667 160.087 49.25C160.254 49.4167 160.317 49.7708 160.275 50.3125C160.233 50.8125 160.129 51.375 159.962 52C159.796 52.625 159.587 53.2292 159.337 53.8125C159.087 54.3542 158.837 54.7083 158.587 54.875C158.379 54.9583 157.546 55.0833 156.087 55.25C154.671 55.375 152.65 55.5 150.025 55.625C150.025 57.4167 150.004 59.1875 149.962 60.9375C149.962 62.6875 149.942 64.2917 149.9 65.75C153.942 65.7917 156.879 65.875 158.712 66C160.587 66.0833 161.608 66.2083 161.775 66.375C161.942 66.5833 161.942 66.9792 161.775 67.5625C161.65 68.1458 161.421 68.7708 161.087 69.4375C160.796 70.0625 160.462 70.6875 160.087 71.3125C159.754 71.9375 159.483 72.375 159.275 72.625C159.192 72.7083 158.692 72.75 157.775 72.75C156.858 72.7083 155.837 72.6458 154.712 72.5625C153.587 72.4792 152.504 72.3958 151.462 72.3125C150.421 72.1875 149.733 72.0833 149.4 72C148.775 71.7917 148.108 71.4583 147.4 71C146.692 70.5 146.129 69.875 145.712 69.125C145.629 68.9167 145.483 68.2292 145.275 67.0625C145.108 65.8542 144.921 64.3333 144.712 62.5C144.504 60.6667 144.296 58.6042 144.087 56.3125C143.879 54.0208 143.671 51.6875 143.462 49.3125C143.254 46.9375 143.067 44.6042 142.9 42.3125C142.733 40.0208 142.587 37.9583 142.462 36.125C142.379 34.25 142.337 32.7083 142.337 31.5C142.337 30.25 142.4 29.5 142.525 29.25C142.65 28.9167 143.233 28.6667 144.275 28.5C145.317 28.3333 146.567 28.2292 148.025 28.1875C149.483 28.1042 151.046 28.0833 152.712 28.125C154.421 28.1667 156.004 28.25 157.462 28.375C158.921 28.4583 160.15 28.5833 161.15 28.75C162.15 28.875 162.712 29 162.837 29.125C163.004 29.3333 163.087 29.8125 163.087 30.5625C163.129 31.3125 163.087 32.1458 162.962 33.0625C162.879 33.9375 162.733 34.7917 162.525 35.625C162.358 36.4167 162.171 36.9375 161.962 37.1875ZM177.55 67C176.758 64.2917 175.904 61.1042 174.987 57.4375C174.196 54.3125 173.279 50.5 172.237 46C171.196 41.5 170.092 36.3333 168.925 30.5C168.925 30.0833 169.154 29.6042 169.612 29.0625C170.071 28.4792 170.612 27.9375 171.237 27.4375C171.904 26.9375 172.592 26.5 173.3 26.125C174.008 25.75 174.612 25.5625 175.112 25.5625C175.404 25.8958 175.8 27.3125 176.3 29.8125C176.508 30.8958 176.758 32.25 177.05 33.875C177.383 35.5 177.737 37.5208 178.112 39.9375C178.487 42.3125 178.904 45.1042 179.362 48.3125C179.821 51.5208 180.342 55.25 180.925 59.5C181.342 56.625 181.758 53.9167 182.175 51.375C182.592 48.7917 182.967 46.5 183.3 44.5C183.717 42.2083 184.092 40.0833 184.425 38.125C184.592 36.9167 184.779 35.6458 184.987 34.3125C185.237 32.9375 185.487 31.6875 185.737 30.5625C185.987 29.4375 186.237 28.5 186.487 27.75C186.779 27 187.092 26.625 187.425 26.625C187.717 26.5833 188.196 26.625 188.862 26.75C189.571 26.875 190.258 27.0625 190.925 27.3125C191.592 27.5208 192.175 27.7708 192.675 28.0625C193.217 28.3542 193.487 28.6458 193.487 28.9375C193.487 29.1042 193.321 29.8958 192.987 31.3125C192.696 32.7292 192.258 34.5417 191.675 36.75C191.133 38.9167 190.508 41.375 189.8 44.125C189.133 46.875 188.404 49.6875 187.612 52.5625C186.862 55.3958 186.112 58.1667 185.362 60.875C184.612 63.5833 183.925 66 183.3 68.125C182.675 70.2083 182.133 71.8958 181.675 73.1875C181.258 74.4792 180.967 75.125 180.8 75.125C180.633 75.125 180.196 74.3958 179.487 72.9375C178.779 71.4375 178.133 69.4583 177.55 67Z" fill="#038BBB"/>
<path d="M120.062 26.5625L119.846 27.5387L119.856 27.541L119.866 27.5431L120.062 26.5625ZM123.5 28.0625L123.004 28.9307L123.013 28.9362L123.023 28.9414L123.5 28.0625ZM127.875 30.8125L127.294 31.6262L127.307 31.6356L127.32 31.6446L127.875 30.8125ZM131.812 33.8125L131.148 34.5599L131.156 34.5669L131.164 34.5737L131.812 33.8125ZM133.812 35.875L134.741 35.5036L134.726 35.465L134.707 35.4278L133.812 35.875ZM133.625 42.3125L134.616 42.443L134.617 42.4397L133.625 42.3125ZM131.688 53.375L132.665 53.5874L132.666 53.5831L131.688 53.375ZM130.312 59L129.348 58.7369L129.346 58.7445L129.344 58.7522L130.312 59ZM128.875 63.75L127.935 63.4083L127.927 63.4298L127.921 63.4517L128.875 63.75ZM125 68.3125L125.616 69.1L125.627 69.0919L125.637 69.0835L125 68.3125ZM121.938 70.4375L121.413 69.5858L121.406 69.5905L121.398 69.5952L121.938 70.4375ZM118.938 72.125L118.506 71.2229L118.498 71.2267L118.49 71.2306L118.938 72.125ZM116.438 73.0625L116.221 72.0862L116.208 72.0891L116.438 73.0625ZM114.188 70.5625L113.204 70.7414L113.207 70.7589L113.211 70.7762L114.188 70.5625ZM113.438 65.4375L112.445 65.5566L112.445 65.559L113.438 65.4375ZM112.75 58.5L111.753 58.5804L111.753 58.5817L112.75 58.5ZM111.75 42.8125L110.751 42.8447L110.751 42.8532L110.751 42.8616L111.75 42.8125ZM111.562 35.875H110.562V35.8852L110.563 35.8954L111.562 35.875ZM111.688 30.6875L112.686 30.748L112.686 30.7462L111.688 30.6875ZM112.125 28.125L111.344 27.5003L111.327 27.5216L111.311 27.5438L112.125 28.125ZM113.375 27.5L113.093 26.5406L113.085 26.543L113.077 26.5455L113.375 27.5ZM115.688 26.9375L115.5 25.9551L115.491 25.9569L115.688 26.9375ZM118.25 26.5625L118.15 25.5675L118.25 26.5625ZM119.688 34.5L120.269 35.3137L120.299 35.2921L120.328 35.2682L119.688 34.5ZM119.062 36.4375L120.055 36.5566L120.056 36.5521L119.062 36.4375ZM118.75 40.25L117.752 40.1945L117.751 40.208L117.75 40.2214L118.75 40.25ZM118.625 49.5L117.625 49.4697L117.625 49.4768L118.625 49.5ZM118.5 58H117.5V58.0102L117.5 58.0204L118.5 58ZM118.625 62.625L117.626 62.665L117.627 62.6865L117.628 62.708L118.625 62.625ZM118.938 64.5625L118.018 64.9564L118.03 64.9834L118.043 65.0097L118.938 64.5625ZM120.25 64.5625L119.736 63.705L119.715 63.7173L119.695 63.7304L120.25 64.5625ZM122.875 62.4375L123.582 63.1446L123.599 63.1278L123.615 63.1102L122.875 62.4375ZM124.375 59.3125L125.343 59.5649L125.345 59.555L124.375 59.3125ZM125.125 55.875L126.107 56.065L126.108 56.0593L125.125 55.875ZM125.875 51.6875L126.861 51.8565L126.861 51.8519L125.875 51.6875ZM126.5 47.4375L125.511 47.2877L125.509 47.3006L125.508 47.3135L126.5 47.4375ZM126.938 43.8125L125.944 43.6979L125.942 43.7153L125.941 43.7328L126.938 43.8125ZM127.125 41.5H128.125V41.4762L128.124 41.4524L127.125 41.5ZM126.062 38.8125L125.254 39.4007L126.062 38.8125ZM123.75 36.375L123.102 37.1369L123.111 37.1447L123.121 37.1522L123.75 36.375ZM121.25 34.75L120.822 35.6537L120.831 35.6579L120.84 35.6619L121.25 34.75ZM119.866 27.5431C120.535 27.6769 121.566 28.1093 123.004 28.9307L123.996 27.1943C122.517 26.3491 121.256 25.7814 120.259 25.5819L119.866 27.5431ZM123.023 28.9414C124.442 29.712 125.866 30.6065 127.294 31.6262L128.456 29.9988C126.967 28.9352 125.474 27.9963 123.977 27.1836L123.023 28.9414ZM127.32 31.6446C128.789 32.6237 130.064 33.5959 131.148 34.5599L132.477 33.0651C131.311 32.0291 129.961 31.0013 128.43 29.9804L127.32 31.6446ZM131.164 34.5737C131.714 35.0421 132.136 35.4308 132.438 35.743C132.759 36.0738 132.886 36.2586 132.918 36.3222L134.707 35.4278C134.53 35.0748 134.22 34.7074 133.874 34.3507C133.51 33.9755 133.036 33.5413 132.461 33.0513L131.164 34.5737ZM132.884 36.2464C132.913 36.3183 132.96 36.4998 132.988 36.8464C133.015 37.1794 133.021 37.6113 133.001 38.1505L134.999 38.2245C135.021 37.6387 135.017 37.1226 134.981 36.6848C134.947 36.2606 134.879 35.8483 134.741 35.5036L132.884 36.2464ZM133.001 38.1505C132.961 39.2352 132.839 40.5781 132.633 42.1853L134.617 42.4397C134.827 40.7969 134.956 39.3898 134.999 38.2245L133.001 38.1505ZM132.634 42.182C132.427 43.7492 132.159 45.4853 131.827 47.3912L133.798 47.7338C134.133 45.8064 134.406 44.0425 134.616 42.443L132.634 42.182ZM131.827 47.3912C131.496 49.2952 131.124 51.2204 130.709 53.1669L132.666 53.5831C133.085 51.6129 133.462 49.6632 133.798 47.7338L131.827 47.3912ZM130.71 53.1626C130.297 55.0628 129.843 56.9209 129.348 58.7369L131.277 59.2631C131.782 57.4125 132.244 55.5206 132.665 53.5874L130.71 53.1626ZM129.344 58.7522C128.891 60.5199 128.422 62.0708 127.935 63.4083L129.815 64.0917C130.328 62.6792 130.817 61.0634 131.281 59.2478L129.344 58.7522ZM127.921 63.4517C127.771 63.9298 127.413 64.5353 126.755 65.2707L128.245 66.6043C129.004 65.7564 129.562 64.9036 129.829 64.0483L127.921 63.4517ZM126.755 65.2707C126.085 66.0193 125.289 66.7766 124.363 67.5415L125.637 69.0835C126.628 68.2651 127.498 67.439 128.245 66.6043L126.755 65.2707ZM124.384 67.525C123.456 68.2509 122.466 68.9379 121.413 69.5858L122.462 71.2892C123.575 70.6037 124.627 69.8741 125.616 69.1L124.384 67.525ZM121.398 69.5952C120.386 70.2432 119.422 70.7849 118.506 71.2229L119.369 73.0271C120.37 72.5485 121.406 71.9651 122.477 71.2798L121.398 69.5952ZM118.49 71.2306C117.624 71.6637 116.869 71.9421 116.221 72.0863L116.654 74.0387C117.506 73.8495 118.418 73.503 119.385 73.0194L118.49 71.2306ZM116.208 72.0891C115.91 72.1592 115.728 72.1682 115.634 72.16C115.544 72.1522 115.614 72.1376 115.707 72.2304L114.293 73.6446C114.636 73.9874 115.071 74.1186 115.46 74.1525C115.845 74.186 116.256 74.1324 116.667 74.0359L116.208 72.0891ZM115.707 72.2304C115.762 72.2856 115.691 72.23 115.556 71.8326C115.438 71.488 115.306 70.9983 115.164 70.3488L113.211 70.7762C113.36 71.46 113.51 72.0328 113.663 72.4799C113.798 72.8742 113.988 73.3394 114.293 73.6446L115.707 72.2304ZM115.171 70.3836C114.926 69.0342 114.679 67.3465 114.43 65.316L112.445 65.559C112.696 67.6119 112.949 69.3408 113.204 70.7414L115.171 70.3836ZM114.43 65.3184C114.182 63.2498 113.954 60.95 113.747 58.4183L111.753 58.5817C111.962 61.1333 112.193 63.4585 112.445 65.5566L114.43 65.3184ZM113.747 58.4196C113.539 55.8425 113.352 53.2235 113.186 50.5626L111.189 50.6874C111.356 53.3599 111.544 55.9909 111.753 58.5804L113.747 58.4196ZM113.186 50.5626C113.019 47.9002 112.874 45.3004 112.749 42.7634L110.751 42.8616C110.876 45.4079 111.023 48.0165 111.189 50.6874L113.186 50.5626ZM112.749 42.7803C112.666 40.1999 112.604 37.8914 112.562 35.8546L110.563 35.8954C110.604 37.9419 110.667 40.2584 110.751 42.8447L112.749 42.7803ZM112.562 35.875C112.562 33.8028 112.604 32.0955 112.686 30.748L110.689 30.627C110.604 32.0295 110.562 33.7806 110.562 35.875H112.562ZM112.686 30.7462C112.726 30.0547 112.781 29.528 112.845 29.1527C112.919 28.7202 112.982 28.6455 112.939 28.7062L111.311 27.5438C111.06 27.8961 110.946 28.3943 110.874 28.8161C110.792 29.2949 110.732 29.9037 110.689 30.6288L112.686 30.7462ZM112.906 28.7497C112.855 28.8134 112.848 28.7877 113.01 28.7069C113.153 28.6354 113.369 28.5497 113.673 28.4545L113.077 26.5455C112.715 26.6586 112.389 26.7813 112.115 26.9181C111.86 27.0457 111.562 27.2283 111.344 27.5003L112.906 28.7497ZM113.657 28.4594C114.333 28.2605 115.075 28.0798 115.884 27.9181L115.491 25.9569C114.633 26.1285 113.833 26.3228 113.093 26.5406L113.657 28.4594ZM115.875 27.9198C116.722 27.7583 117.547 27.6378 118.35 27.5575L118.15 25.5675C117.286 25.6539 116.403 25.7833 115.5 25.9552L115.875 27.9198ZM118.35 27.5575C119.172 27.4753 119.638 27.4926 119.846 27.5387L120.279 25.5863C119.737 25.4657 118.995 25.483 118.15 25.5675L118.35 27.5575ZM119.106 33.6863C118.688 33.9853 118.48 34.463 118.361 34.8336C118.228 35.2451 118.135 35.7501 118.069 36.3229L120.056 36.5521C120.115 36.0416 120.189 35.682 120.264 35.4476C120.302 35.3317 120.332 35.2693 120.347 35.2435C120.364 35.2149 120.345 35.2591 120.269 35.3137L119.106 33.6863ZM118.07 36.3184C117.941 37.388 117.836 38.6815 117.752 40.1945L119.748 40.3055C119.831 38.8185 119.934 37.5703 120.055 36.5566L118.07 36.3184ZM117.75 40.2214C117.708 41.6905 117.688 43.2626 117.688 44.9375H119.688C119.688 43.279 119.708 41.7262 119.75 40.2786L117.75 40.2214ZM117.688 44.9375C117.688 46.5961 117.667 48.1066 117.625 49.4697L119.625 49.5303C119.667 48.1434 119.688 46.6122 119.688 44.9375H117.688ZM117.625 49.4768C117.542 53.0632 117.5 55.9054 117.5 58H119.5C119.5 55.928 119.541 53.1035 119.625 49.5232L117.625 49.4768ZM117.5 58.0204C117.542 60.0637 117.584 61.6132 117.626 62.665L119.624 62.585C119.583 61.5534 119.541 60.0197 119.5 57.9796L117.5 58.0204ZM117.628 62.708C117.671 63.2217 117.721 63.6609 117.778 64.0186C117.833 64.3559 117.905 64.6919 118.018 64.9564L119.857 64.1686C119.857 64.1692 119.853 64.1595 119.845 64.136C119.838 64.1131 119.829 64.0815 119.819 64.0399C119.798 63.9558 119.776 63.8439 119.753 63.7001C119.706 63.412 119.662 63.0283 119.622 62.542L117.628 62.708ZM118.043 65.0097C118.27 65.4634 118.72 65.9375 119.438 65.9375V63.9375C119.487 63.9375 119.545 63.9452 119.605 63.9654C119.666 63.9855 119.717 64.014 119.756 64.0438C119.832 64.1006 119.848 64.1467 119.832 64.1153L118.043 65.0097ZM119.438 65.9375C119.738 65.9375 120.006 65.8343 120.185 65.7517C120.385 65.6595 120.593 65.5354 120.805 65.3946L119.695 63.7304C119.532 63.8396 119.418 63.903 119.347 63.9358C119.312 63.9517 119.3 63.9546 119.307 63.9525C119.312 63.9512 119.359 63.9375 119.438 63.9375V65.9375ZM120.764 65.42C121.231 65.1404 121.708 64.7983 122.196 64.399L120.929 62.851C120.501 63.2017 120.103 63.4846 119.736 63.705L120.764 65.42ZM122.196 64.399C122.68 64.003 123.142 63.5849 123.582 63.1446L122.168 61.7304C121.775 62.1234 121.362 62.497 120.929 62.851L122.196 64.399ZM123.615 63.1102C124.058 62.6225 124.419 62.1486 124.644 61.6972L122.856 60.8028C122.748 61.0181 122.525 61.3358 122.135 61.7648L123.615 63.1102ZM124.644 61.6972C124.864 61.2577 125.095 60.5152 125.343 59.5649L123.407 59.0601C123.155 60.0265 122.969 60.5756 122.856 60.8028L124.644 61.6972ZM125.345 59.555C125.6 58.5337 125.854 57.3698 126.107 56.065L124.143 55.685C123.896 56.9636 123.65 58.0913 123.405 59.07L125.345 59.555ZM126.108 56.0593C126.359 54.7204 126.61 53.3195 126.861 51.8565L124.889 51.5185C124.64 52.9722 124.391 54.3629 124.142 55.6907L126.108 56.0593ZM126.861 51.8519C127.113 50.3402 127.324 48.91 127.492 47.5615L125.508 47.3135C125.343 48.6317 125.137 50.0348 124.889 51.5231L126.861 51.8519ZM127.489 47.5873C127.699 46.1961 127.849 44.9635 127.934 43.8922L125.941 43.7328C125.86 44.7448 125.717 45.9289 125.511 47.2877L127.489 47.5873ZM127.931 43.9271C128.056 42.8432 128.125 42.0216 128.125 41.5H126.125C126.125 41.8951 126.069 42.6151 125.944 43.6979L127.931 43.9271ZM128.124 41.4524C128.071 40.3327 127.619 39.2529 126.871 38.2243L125.254 39.4007C125.839 40.2054 126.096 40.9173 126.126 41.5476L128.124 41.4524ZM126.871 38.2243C126.154 37.2376 125.323 36.3614 124.379 35.5978L123.121 37.1522C123.927 37.8053 124.638 38.5541 125.254 39.4007L126.871 38.2243ZM124.398 35.6131C123.506 34.8554 122.594 34.2584 121.66 33.8381L120.84 35.6619C121.572 35.9916 122.327 36.4779 123.102 37.1369L124.398 35.6131ZM121.678 33.8463C121.245 33.6412 120.819 33.482 120.424 33.4188C120.051 33.3592 119.5 33.3541 119.047 33.7318L120.328 35.2682C120.125 35.4375 119.959 35.37 120.108 35.3937C120.233 35.4138 120.463 35.4838 120.822 35.6537L121.678 33.8463ZM161.962 37.1875L161.194 36.5473L161.188 36.555L161.182 36.5628L161.962 37.1875ZM150.025 36.4375L150.117 35.4418L149.025 35.3404V36.4375H150.025ZM150.025 41.5H149.025V41.5104L149.025 41.5208L150.025 41.5ZM150.025 47.9375L149.025 47.9193L149.008 48.847L149.932 48.9332L150.025 47.9375ZM160.275 50.3125L161.272 50.3955L161.272 50.3892L160.275 50.3125ZM159.337 53.8125L160.245 54.2316L160.251 54.2191L160.257 54.2064L159.337 53.8125ZM158.587 54.875L158.959 55.8035L159.056 55.7648L159.142 55.7071L158.587 54.875ZM156.087 55.25L156.175 56.2461L156.188 56.245L156.201 56.2435L156.087 55.25ZM150.025 55.625L149.977 54.6261L149.025 54.6715V55.625H150.025ZM149.962 60.9375L148.963 60.9137L148.962 60.9256V60.9375H149.962ZM149.9 65.75L148.9 65.7214L148.871 66.7394L149.89 66.7499L149.9 65.75ZM158.712 66L158.644 66.9977L158.656 66.9985L158.668 66.999L158.712 66ZM161.775 66.375L162.556 65.7503L162.521 65.7071L162.482 65.6679L161.775 66.375ZM161.775 67.5625L160.813 67.2878L160.804 67.3201L160.797 67.353L161.775 67.5625ZM161.087 69.4375L160.193 68.9903L160.187 69.0024L160.181 69.0146L161.087 69.4375ZM160.087 71.3125L159.23 70.798L159.217 70.8196L159.205 70.8419L160.087 71.3125ZM159.275 72.625L159.982 73.3321L160.014 73.3L160.043 73.2652L159.275 72.625ZM157.775 72.75L157.73 73.749L157.752 73.75H157.775V72.75ZM154.712 72.5625L154.639 73.5598L154.712 72.5625ZM151.462 72.3125L151.343 73.3054L151.363 73.3077L151.383 73.3093L151.462 72.3125ZM149.4 72L149.084 72.9487L149.12 72.9608L149.157 72.9701L149.4 72ZM147.4 71L146.823 71.817L146.84 71.8286L146.857 71.8396L147.4 71ZM145.712 69.125L144.784 69.4964L144.808 69.5552L144.838 69.6106L145.712 69.125ZM145.275 67.0625L144.284 67.1991L144.287 67.2188L144.291 67.2383L145.275 67.0625ZM142.462 36.125L141.463 36.1694L141.464 36.1812L141.465 36.193L142.462 36.125ZM142.525 29.25L143.419 29.6972L143.443 29.6503L143.461 29.6011L142.525 29.25ZM148.025 28.1875L148.054 29.1871L148.068 29.1867L148.082 29.1859L148.025 28.1875ZM152.712 28.125L152.688 29.1247L152.688 29.1247L152.712 28.125ZM157.462 28.375L157.377 29.3713L157.391 29.3726L157.405 29.3734L157.462 28.375ZM161.15 28.75L160.986 29.7364L161.006 29.7397L161.026 29.7423L161.15 28.75ZM162.837 29.125L163.618 28.5003L163.584 28.4571L163.545 28.4179L162.837 29.125ZM163.087 30.5625H162.087V30.5903L162.089 30.618L163.087 30.5625ZM162.962 33.0625L161.972 32.9274L161.969 32.9475L161.967 32.9677L162.962 33.0625ZM162.525 35.625L161.555 35.3825L161.55 35.4006L161.546 35.419L162.525 35.625ZM161.182 36.5628C161.306 36.4075 161.44 36.3487 161.469 36.3364C161.509 36.3196 161.522 36.3202 161.488 36.3267C161.42 36.3398 161.283 36.3549 161.051 36.3596C160.596 36.3689 159.915 36.3362 158.989 36.2539L158.811 38.2461C159.76 38.3304 160.527 38.3707 161.092 38.3592C161.371 38.3535 161.638 38.3347 161.867 38.2905C161.981 38.2684 162.116 38.2344 162.251 38.1773C162.375 38.1246 162.577 38.0196 162.743 37.8122L161.182 36.5628ZM158.989 36.2539C157.116 36.0874 154.159 35.8168 150.117 35.4418L149.933 37.4332C153.974 37.8082 156.934 38.0792 158.811 38.2461L158.989 36.2539ZM149.025 36.4375C149.025 36.4402 149.025 36.4429 149.025 36.4456C149.025 36.4482 149.025 36.4509 149.025 36.4536C149.025 36.4563 149.025 36.459 149.025 36.4617C149.025 36.4644 149.025 36.4671 149.025 36.4698C149.025 36.4725 149.025 36.4752 149.025 36.4779C149.025 36.4806 149.025 36.4833 149.025 36.486C149.025 36.4887 149.025 36.4914 149.025 36.4941C149.025 36.4968 149.025 36.4995 149.025 36.5022C149.025 36.5049 149.025 36.5076 149.025 36.5103C149.025 36.513 149.025 36.5157 149.025 36.5184C149.025 36.5211 149.025 36.5238 149.025 36.5266C149.025 36.5293 149.025 36.532 149.025 36.5347C149.025 36.5374 149.025 36.5401 149.025 36.5428C149.025 36.5456 149.025 36.5483 149.025 36.551C149.025 36.5537 149.025 36.5564 149.025 36.5592C149.025 36.5619 149.025 36.5646 149.025 36.5673C149.025 36.57 149.025 36.5728 149.025 36.5755C149.025 36.5782 149.025 36.5809 149.025 36.5837C149.025 36.5864 149.025 36.5891 149.025 36.5919C149.025 36.5946 149.025 36.5973 149.025 36.6001C149.025 36.6028 149.025 36.6055 149.025 36.6083C149.025 36.611 149.025 36.6137 149.025 36.6165C149.025 36.6192 149.025 36.622 149.025 36.6247C149.025 36.6274 149.025 36.6302 149.025 36.6329C149.025 36.6357 149.025 36.6384 149.025 36.6412C149.025 36.6439 149.025 36.6466 149.025 36.6494C149.025 36.6521 149.025 36.6549 149.025 36.6576C149.025 36.6604 149.025 36.6631 149.025 36.6659C149.025 36.6686 149.025 36.6714 149.025 36.6742C149.025 36.6769 149.025 36.6797 149.025 36.6824C149.025 36.6852 149.025 36.6879 149.025 36.6907C149.025 36.6935 149.025 36.6962 149.025 36.699C149.025 36.7017 149.025 36.7045 149.025 36.7073C149.025 36.71 149.025 36.7128 149.025 36.7156C149.025 36.7183 149.025 36.7211 149.025 36.7239C149.025 36.7266 149.025 36.7294 149.025 36.7322C149.025 36.7349 149.025 36.7377 149.025 36.7405C149.025 36.7433 149.025 36.746 149.025 36.7488C149.025 36.7516 149.025 36.7544 149.025 36.7571C149.025 36.7599 149.025 36.7627 149.025 36.7655C149.025 36.7683 149.025 36.7711 149.025 36.7738C149.025 36.7766 149.025 36.7794 149.025 36.7822C149.025 36.785 149.025 36.7878 149.025 36.7905C149.025 36.7933 149.025 36.7961 149.025 36.7989C149.025 36.8017 149.025 36.8045 149.025 36.8073C149.025 36.8101 149.025 36.8129 149.025 36.8157C149.025 36.8185 149.025 36.8213 149.025 36.8241C149.025 36.8269 149.025 36.8297 149.025 36.8325C149.025 36.8353 149.025 36.8381 149.025 36.8409C149.025 36.8437 149.025 36.8465 149.025 36.8493C149.025 36.8521 149.025 36.8549 149.025 36.8577C149.025 36.8605 149.025 36.8633 149.025 36.8661C149.025 36.8689 149.025 36.8717 149.025 36.8745C149.025 36.8774 149.025 36.8802 149.025 36.883C149.025 36.8858 149.025 36.8886 149.025 36.8914C149.025 36.8943 149.025 36.8971 149.025 36.8999C149.025 36.9027 149.025 36.9055 149.025 36.9083C149.025 36.9112 149.025 36.914 149.025 36.9168C149.025 36.9196 149.025 36.9225 149.025 36.9253C149.025 36.9281 149.025 36.9309 149.025 36.9338C149.025 36.9366 149.025 36.9394 149.025 36.9423C149.025 36.9451 149.025 36.9479 149.025 36.9508C149.025 36.9536 149.025 36.9564 149.025 36.9593C149.025 36.9621 149.025 36.9649 149.025 36.9678C149.025 36.9706 149.025 36.9735 149.025 36.9763C149.025 36.9791 149.025 36.982 149.025 36.9848C149.025 36.9877 149.025 36.9905 149.025 36.9933C149.025 36.9962 149.025 36.999 149.025 37.0019C149.025 37.0047 149.025 37.0076 149.025 37.0104C149.025 37.0133 149.025 37.0161 149.025 37.019C149.025 37.0218 149.025 37.0247 149.025 37.0275C149.025 37.0304 149.025 37.0333 149.025 37.0361C149.025 37.039 149.025 37.0418 149.025 37.0447C149.025 37.0476 149.025 37.0504 149.025 37.0533C149.025 37.0561 149.025 37.059 149.025 37.0619C149.025 37.0647 149.025 37.0676 149.025 37.0705C149.025 37.0733 149.025 37.0762 149.025 37.0791C149.025 37.0819 149.025 37.0848 149.025 37.0877C149.025 37.0905 149.025 37.0934 149.025 37.0963C149.025 37.0992 149.025 37.102 149.025 37.1049C149.025 37.1078 149.025 37.1107 149.025 37.1136C149.025 37.1164 149.025 37.1193 149.025 37.1222C149.025 37.1251 149.025 37.128 149.025 37.1308C149.025 37.1337 149.025 37.1366 149.025 37.1395C149.025 37.1424 149.025 37.1453 149.025 37.1482C149.025 37.151 149.025 37.1539 149.025 37.1568C149.025 37.1597 149.025 37.1626 149.025 37.1655C149.025 37.1684 149.025 37.1713 149.025 37.1742C149.025 37.1771 149.025 37.18 149.025 37.1829C149.025 37.1858 149.025 37.1887 149.025 37.1916C149.025 37.1945 149.025 37.1974 149.025 37.2003C149.025 37.2032 149.025 37.2061 149.025 37.209C149.025 37.2119 149.025 37.2148 149.025 37.2177C149.025 37.2206 149.025 37.2235 149.025 37.2264C149.025 37.2293 149.025 37.2322 149.025 37.2352C149.025 37.2381 149.025 37.241 149.025 37.2439C149.025 37.2468 149.025 37.2497 149.025 37.2526C149.025 37.2556 149.025 37.2585 149.025 37.2614C149.025 37.2643 149.025 37.2672 149.025 37.2702C149.025 37.2731 149.025 37.276 149.025 37.2789C149.025 37.2819 149.025 37.2848 149.025 37.2877C149.025 37.2906 149.025 37.2936 149.025 37.2965C149.025 37.2994 149.025 37.3023 149.025 37.3053C149.025 37.3082 149.025 37.3111 149.025 37.3141C149.025 37.317 149.025 37.3199 149.025 37.3229C149.025 37.3258 149.025 37.3287 149.025 37.3317C149.025 37.3346 149.025 37.3376 149.025 37.3405C149.025 37.3434 149.025 37.3464 149.025 37.3493C149.025 37.3523 149.025 37.3552 149.025 37.3582C149.025 37.3611 149.025 37.3641 149.025 37.367C149.025 37.37 149.025 37.3729 149.025 37.3759C149.025 37.3788 149.025 37.3818 149.025 37.3847C149.025 37.3877 149.025 37.3906 149.025 37.3936C149.025 37.3965 149.025 37.3995 149.025 37.4024C149.025 37.4054 149.025 37.4084 149.025 37.4113C149.025 37.4143 149.025 37.4172 149.025 37.4202C149.025 37.4232 149.025 37.4261 149.025 37.4291C149.025 37.432 149.025 37.435 149.025 37.438C149.025 37.4409 149.025 37.4439 149.025 37.4469C149.025 37.4499 149.025 37.4528 149.025 37.4558C149.025 37.4588 149.025 37.4617 149.025 37.4647C149.025 37.4677 149.025 37.4707 149.025 37.4736C149.025 37.4766 149.025 37.4796 149.025 37.4826C149.025 37.4856 149.025 37.4885 149.025 37.4915C149.025 37.4945 149.025 37.4975 149.025 37.5005C149.025 37.5034 149.025 37.5064 149.025 37.5094C149.025 37.5124 149.025 37.5154 149.025 37.5184C149.025 37.5214 149.025 37.5244 149.025 37.5273C149.025 37.5303 149.025 37.5333 149.025 37.5363C149.025 37.5393 149.025 37.5423 149.025 37.5453C149.025 37.5483 149.025 37.5513 149.025 37.5543C149.025 37.5573 149.025 37.5603 149.025 37.5633C149.025 37.5663 149.025 37.5693 149.025 37.5723C149.025 37.5753 149.025 37.5783 149.025 37.5813C149.025 37.5843 149.025 37.5873 149.025 37.5903C149.025 37.5933 149.025 37.5963 149.025 37.5993C149.025 37.6024 149.025 37.6054 149.025 37.6084C149.025 37.6114 149.025 37.6144 149.025 37.6174C149.025 37.6204 149.025 37.6235 149.025 37.6265C149.025 37.6295 149.025 37.6325 149.025 37.6355C149.025 37.6385 149.025 37.6416 149.025 37.6446C149.025 37.6476 149.025 37.6506 149.025 37.6537C149.025 37.6567 149.025 37.6597 149.025 37.6627C149.025 37.6658 149.025 37.6688 149.025 37.6718C149.025 37.6748 149.025 37.6779 149.025 37.6809C149.025 37.6839 149.025 37.687 149.025 37.69C149.025 37.693 149.025 37.6961 149.025 37.6991C149.025 37.7021 149.025 37.7052 149.025 37.7082C149.025 37.7113 149.025 37.7143 149.025 37.7173C149.025 37.7204 149.025 37.7234 149.025 37.7265C149.025 37.7295 149.025 37.7325 149.025 37.7356C149.025 37.7386 149.025 37.7417 149.025 37.7447C149.025 37.7478 149.025 37.7508 149.025 37.7539C149.025 37.7569 149.025 37.76 149.025 37.763C149.025 37.7661 149.025 37.7691 149.025 37.7722C149.025 37.7753 149.025 37.7783 149.025 37.7814C149.025 37.7844 149.025 37.7875 149.025 37.7905C149.025 37.7936 149.025 37.7967 149.025 37.7997C149.025 37.8028 149.025 37.8059 149.025 37.8089C149.025 37.812 149.025 37.815 149.025 37.8181C149.025 37.8212 149.025 37.8243 149.025 37.8273C149.025 37.8304 149.025 37.8335 149.025 37.8365C149.025 37.8396 149.025 37.8427 149.025 37.8458C149.025 37.8488 149.025 37.8519 149.025 37.855C149.025 37.8581 149.025 37.8611 149.025 37.8642C149.025 37.8673 149.025 37.8704 149.025 37.8735C149.025 37.8765 149.025 37.8796 149.025 37.8827C149.025 37.8858 149.025 37.8889 149.025 37.892C149.025 37.895 149.025 37.8981 149.025 37.9012C149.025 37.9043 149.025 37.9074 149.025 37.9105C149.025 37.9136 149.025 37.9167 149.025 37.9198C149.025 37.9229 149.025 37.9259 149.025 37.929C149.025 37.9321 149.025 37.9352 149.025 37.9383C149.025 37.9414 149.025 37.9445 149.025 37.9476C149.025 37.9507 149.025 37.9538 149.025 37.9569C149.025 37.96 149.025 37.9631 149.025 37.9662C149.025 37.9694 149.025 37.9725 149.025 37.9756C149.025 37.9787 149.025 37.9818 149.025 37.9849C149.025 37.988 149.025 37.9911 149.025 37.9942C149.025 37.9973 149.025 38.0005 149.025 38.0036C149.025 38.0067 149.025 38.0098 149.025 38.0129C149.025 38.016 149.025 38.0191 149.025 38.0223C149.025 38.0254 149.025 38.0285 149.025 38.0316C149.025 38.0348 149.025 38.0379 149.025 38.041C149.025 38.0441 149.025 38.0473 149.025 38.0504C149.025 38.0535 149.025 38.0566 149.025 38.0598C149.025 38.0629 149.025 38.066 149.025 38.0692C149.025 38.0723 149.025 38.0754 149.025 38.0785C149.025 38.0817 149.025 38.0848 149.025 38.088C149.025 38.0911 149.025 38.0942 149.025 38.0974C149.025 38.1005 149.025 38.1036 149.025 38.1068C149.025 38.1099 149.025 38.1131 149.025 38.1162C149.025 38.1194 149.025 38.1225 149.025 38.1256C149.025 38.1288 149.025 38.1319 149.025 38.1351C149.025 38.1382 149.025 38.1414 149.025 38.1445C149.025 38.1477 149.025 38.1508 149.025 38.154C149.025 38.1571 149.025 38.1603 149.025 38.1635C149.025 38.1666 149.025 38.1698 149.025 38.1729C149.025 38.1761 149.025 38.1792 149.025 38.1824C149.025 38.1856 149.025 38.1887 149.025 38.1919C149.025 38.195 149.025 38.1982 149.025 38.2014C149.025 38.2045 149.025 38.2077 149.025 38.2109C149.025 38.214 149.025 38.2172 149.025 38.2204C149.025 38.2235 149.025 38.2267 149.025 38.2299C149.025 38.2331 149.025 38.2362 149.025 38.2394C149.025 38.2426 149.025 38.2458 149.025 38.2489C149.025 38.2521 149.025 38.2553 149.025 38.2585C149.025 38.2616 149.025 38.2648 149.025 38.268C149.025 38.2712 149.025 38.2744 149.025 38.2776C149.025 38.2807 149.025 38.2839 149.025 38.2871C149.025 38.2903 149.025 38.2935 149.025 38.2967C149.025 38.2999 149.025 38.303 149.025 38.3062C149.025 38.3094 149.025 38.3126 149.025 38.3158C149.025 38.319 149.025 38.3222 149.025 38.3254C149.025 38.3286 149.025 38.3318 149.025 38.335C149.025 38.3382 149.025 38.3414 149.025 38.3446C149.025 38.3478 149.025 38.351 149.025 38.3542C149.025 38.3574 149.025 38.3606 149.025 38.3638C149.025 38.367 149.025 38.3702 149.025 38.3734C149.025 38.3766 149.025 38.3798 149.025 38.3831C149.025 38.3863 149.025 38.3895 149.025 38.3927C149.025 38.3959 149.025 38.3991 149.025 38.4023C149.025 38.4055 149.025 38.4088 149.025 38.412C149.025 38.4152 149.025 38.4184 149.025 38.4216C149.025 38.4249 149.025 38.4281 149.025 38.4313C149.025 38.4345 149.025 38.4377 149.025 38.441C149.025 38.4442 149.025 38.4474 149.025 38.4506C149.025 38.4539 149.025 38.4571 149.025 38.4603C149.025 38.4636 149.025 38.4668 149.025 38.47C149.025 38.4732 149.025 38.4765 149.025 38.4797C149.025 38.4829 149.025 38.4862 149.025 38.4894C149.025 38.4927 149.025 38.4959 149.025 38.4991C149.025 38.5024 149.025 38.5056 149.025 38.5088C149.025 38.5121 149.025 38.5153 149.025 38.5186C149.025 38.5218 149.025 38.5251 149.025 38.5283C149.025 38.5316 149.025 38.5348 149.025 38.5381C149.025 38.5413 149.025 38.5445 149.025 38.5478C149.025 38.5511 149.025 38.5543 149.025 38.5576C149.025 38.5608 149.025 38.5641 149.025 38.5673C149.025 38.5706 149.025 38.5738 149.025 38.5771C149.025 38.5803 149.025 38.5836 149.025 38.5869C149.025 38.5901 149.025 38.5934 149.025 38.5966C149.025 38.5999 149.025 38.6032 149.025 38.6064C149.025 38.6097 149.025 38.613 149.025 38.6162C149.025 38.6195 149.025 38.6228 149.025 38.626C149.025 38.6293 149.025 38.6326 149.025 38.6359C149.025 38.6391 149.025 38.6424 149.025 38.6457C149.025 38.6489 149.025 38.6522 149.025 38.6555C149.025 38.6588 149.025 38.6621 149.025 38.6653C149.025 38.6686 149.025 38.6719 149.025 38.6752C149.025 38.6785 149.025 38.6817 149.025 38.685C149.025 38.6883 149.025 38.6916 149.025 38.6949C149.025 38.6982 149.025 38.7015 149.025 38.7047C149.025 38.708 149.025 38.7113 149.025 38.7146C149.025 38.7179 149.025 38.7212 149.025 38.7245C149.025 38.7278 149.025 38.7311 149.025 38.7344C149.025 38.7377 149.025 38.741 149.025 38.7443C149.025 38.7476 149.025 38.7509 149.025 38.7542C149.025 38.7575 149.025 38.7608 149.025 38.7641C149.025 38.7674 149.025 38.7707 149.025 38.774C149.025 38.7773 149.025 38.7806 149.025 38.7839C149.025 38.7872 149.025 38.7905 149.025 38.7938C149.025 38.7971 149.025 38.8005 149.025 38.8038C149.025 38.8071 149.025 38.8104 149.025 38.8137C149.025 38.817 149.025 38.8203 149.025 38.8237C149.025 38.827 149.025 38.8303 149.025 38.8336C149.025 38.8369 149.025 38.8403 149.025 38.8436C149.025 38.8469 149.025 38.8502 149.025 38.8535C149.025 38.8569 149.025 38.8602 149.025 38.8635C149.025 38.8668 149.025 38.8702 149.025 38.8735C149.025 38.8768 149.025 38.8802 149.025 38.8835C149.025 38.8868 149.025 38.8902 149.025 38.8935C149.025 38.8968 149.025 38.9002 149.025 38.9035C149.025 38.9068 149.025 38.9102 149.025 38.9135C149.025 38.9169 149.025 38.9202 149.025 38.9235C149.025 38.9269 149.025 38.9302 149.025 38.9336C149.025 38.9369 149.025 38.9402 149.025 38.9436C149.025 38.9469 149.025 38.9503 149.025 38.9536C149.025 38.957 149.025 38.9603 149.025 38.9637C149.025 38.967 149.025 38.9704 149.025 38.9737C149.025 38.9771 149.025 38.9804 149.025 38.9838C149.025 38.9872 149.025 38.9905 149.025 38.9939C149.025 38.9972 149.025 39.0006 149.025 39.0039C149.025 39.0073 149.025 39.0107 149.025 39.014C149.025 39.0174 149.025 39.0208 149.025 39.0241C149.025 39.0275 149.025 39.0309 149.025 39.0342C149.025 39.0376 149.025 39.041 149.025 39.0443C149.025 39.0477 149.025 39.0511 149.025 39.0544C149.025 39.0578 149.025 39.0612 149.025 39.0646C149.025 39.0679 149.025 39.0713 149.025 39.0747C149.025 39.0781 149.025 39.0814 149.025 39.0848C149.025 39.0882 149.025 39.0916 149.025 39.095C149.025 39.0983 149.025 39.1017 149.025 39.1051C149.025 39.1085 149.025 39.1119 149.025 39.1153C149.025 39.1187 149.025 39.122 149.025 39.1254C149.025 39.1288 149.025 39.1322 149.025 39.1356C149.025 39.139 149.025 39.1424 149.025 39.1458C149.025 39.1492 149.025 39.1526 149.025 39.156C149.025 39.1594 149.025 39.1628 149.025 39.1662C149.025 39.1696 149.025 39.173 149.025 39.1764C149.025 39.1798 149.025 39.1832 149.025 39.1866C149.025 39.19 149.025 39.1934 149.025 39.1968C149.025 39.2002 149.025 39.2036 149.025 39.207C149.025 39.2104 149.025 39.2138 149.025 39.2172C149.025 39.2206 149.025 39.224 149.025 39.2275C149.025 39.2309 149.025 39.2343 149.025 39.2377C149.025 39.2411 149.025 39.2445 149.025 39.2479C149.025 39.2514 149.025 39.2548 149.025 39.2582C149.025 39.2616 149.025 39.265 149.025 39.2685C149.025 39.2719 149.025 39.2753 149.025 39.2787C149.025 39.2822 149.025 39.2856 149.025 39.289C149.025 39.2924 149.025 39.2959 149.025 39.2993C149.025 39.3027 149.025 39.3062 149.025 39.3096C149.025 39.313 149.025 39.3165 149.025 39.3199C149.025 39.3233 149.025 39.3268 149.025 39.3302C149.025 39.3336 149.025 39.3371 149.025 39.3405C149.025 39.344 149.025 39.3474 149.025 39.3508C149.025 39.3543 149.025 39.3577 149.025 39.3612C149.025 39.3646 149.025 39.368 149.025 39.3715C149.025 39.3749 149.025 39.3784 149.025 39.3818C149.025 39.3853 149.025 39.3887 149.025 39.3922C149.025 39.3956 149.025 39.3991 149.025 39.4025C149.025 39.406 149.025 39.4094 149.025 39.4129C149.025 39.4164 149.025 39.4198 149.025 39.4233C149.025 39.4267 149.025 39.4302 149.025 39.4337C149.025 39.4371 149.025 39.4406 149.025 39.444C149.025 39.4475 149.025 39.451 149.025 39.4544C149.025 39.4579 149.025 39.4614 149.025 39.4648C149.025 39.4683 149.025 39.4718 149.025 39.4752C149.025 39.4787 149.025 39.4822 149.025 39.4856C149.025 39.4891 149.025 39.4926 149.025 39.4961C149.025 39.4995 149.025 39.503 149.025 39.5065C149.025 39.51 149.025 39.5135 149.025 39.5169C149.025 39.5204 149.025 39.5239 149.025 39.5274C149.025 39.5309 149.025 39.5343 149.025 39.5378C149.025 39.5413 149.025 39.5448 149.025 39.5483C149.025 39.5518 149.025 39.5553 149.025 39.5587C149.025 39.5622 149.025 39.5657 149.025 39.5692C149.025 39.5727 149.025 39.5762 149.025 39.5797C149.025 39.5832 149.025 39.5867 149.025 39.5902C149.025 39.5937 149.025 39.5972 149.025 39.6007C149.025 39.6042 149.025 39.6077 149.025 39.6112C149.025 39.6147 149.025 39.6182 149.025 39.6217C149.025 39.6252 149.025 39.6287 149.025 39.6322C149.025 39.6357 149.025 39.6392 149.025 39.6427C149.025 39.6462 149.025 39.6497 149.025 39.6532C149.025 39.6567 149.025 39.6603 149.025 39.6638C149.025 39.6673 149.025 39.6708 149.025 39.6743C149.025 39.6778 149.025 39.6813 149.025 39.6849C149.025 39.6884 149.025 39.6919 149.025 39.6954C149.025 39.6989 149.025 39.7025 149.025 39.706C149.025 39.7095 149.025 39.713 149.025 39.7166C149.025 39.7201 149.025 39.7236 149.025 39.7271C149.025 39.7307 149.025 39.7342 149.025 39.7377C149.025 39.7412 149.025 39.7448 149.025 39.7483C149.025 39.7518 149.025 39.7554 149.025 39.7589C149.025 39.7624 149.025 39.766 149.025 39.7695C149.025 39.7731 149.025 39.7766 149.025 39.7801C149.025 39.7837 149.025 39.7872 149.025 39.7907C149.025 39.7943 149.025 39.7978 149.025 39.8014C149.025 39.8049 149.025 39.8085 149.025 39.812C149.025 39.8156 149.025 39.8191 149.025 39.8227C149.025 39.8262 149.025 39.8298 149.025 39.8333C149.025 39.8369 149.025 39.8404 149.025 39.844C149.025 39.8475 149.025 39.8511 149.025 39.8546C149.025 39.8582 149.025 39.8617 149.025 39.8653C149.025 39.8689 149.025 39.8724 149.025 39.876C149.025 39.8795 149.025 39.8831 149.025 39.8867C149.025 39.8902 149.025 39.8938 149.025 39.8974C149.025 39.9009 149.025 39.9045 149.025 39.908C149.025 39.9116 149.025 39.9152 149.025 39.9188C149.025 39.9223 149.025 39.9259 149.025 39.9295C149.025 39.933 149.025 39.9366 149.025 39.9402C149.025 39.9438 149.025 39.9473 149.025 39.9509C149.025 39.9545 149.025 39.9581 149.025 39.9617C149.025 39.9652 149.025 39.9688 149.025 39.9724C149.025 39.976 149.025 39.9796 149.025 39.9831C149.025 39.9867 149.025 39.9903 149.025 39.9939C149.025 39.9975 149.025 40.0011 149.025 40.0047C149.025 40.0083 149.025 40.0118 149.025 40.0154C149.025 40.019 149.025 40.0226 149.025 40.0262C149.025 40.0298 149.025 40.0334 149.025 40.037C149.025 40.0406 149.025 40.0442 149.025 40.0478C149.025 40.0514 149.025 40.055 149.025 40.0586C149.025 40.0622 149.025 40.0658 149.025 40.0694C149.025 40.073 149.025 40.0766 149.025 40.0802C149.025 40.0838 149.025 40.0874 149.025 40.091C149.025 40.0946 149.025 40.0983 149.025 40.1019C149.025 40.1055 149.025 40.1091 149.025 40.1127C149.025 40.1163 149.025 40.1199 149.025 40.1235C149.025 40.1272 149.025 40.1308 149.025 40.1344C149.025 40.138 149.025 40.1416 149.025 40.1452C149.025 40.1489 149.025 40.1525 149.025 40.1561C149.025 40.1597 149.025 40.1634 149.025 40.167C149.025 40.1706 149.025 40.1742 149.025 40.1779C149.025 40.1815 149.025 40.1851 149.025 40.1887C149.025 40.1924 149.025 40.196 149.025 40.1996C149.025 40.2033 149.025 40.2069 149.025 40.2105C149.025 40.2142 149.025 40.2178 149.025 40.2214C149.025 40.2251 149.025 40.2287 149.025 40.2324C149.025 40.236 149.025 40.2396 149.025 40.2433C149.025 40.2469 149.025 40.2506 149.025 40.2542C149.025 40.2579 149.025 40.2615 149.025 40.2651C149.025 40.2688 149.025 40.2724 149.025 40.2761C149.025 40.2797 149.025 40.2834 149.025 40.287C149.025 40.2907 149.025 40.2943 149.025 40.298C149.025 40.3016 149.025 40.3053 149.025 40.309C149.025 40.3126 149.025 40.3163 149.025 40.3199C149.025 40.3236 149.025 40.3272 149.025 40.3309C149.025 40.3346 149.025 40.3382 149.025 40.3419C149.025 40.3456 149.025 40.3492 149.025 40.3529C149.025 40.3566 149.025 40.3602 149.025 40.3639C149.025 40.3676 149.025 40.3712 149.025 40.3749C149.025 40.3786 149.025 40.3822 149.025 40.3859C149.025 40.3896 149.025 40.3933 149.025 40.3969C149.025 40.4006 149.025 40.4043 149.025 40.408C149.025 40.4116 149.025 40.4153 149.025 40.419C149.025 40.4227 149.025 40.4264 149.025 40.43C149.025 40.4337 149.025 40.4374 149.025 40.4411C149.025 40.4448 149.025 40.4485 149.025 40.4521C149.025 40.4558 149.025 40.4595 149.025 40.4632C149.025 40.4669 149.025 40.4706 149.025 40.4743C149.025 40.478 149.025 40.4817 149.025 40.4854C149.025 40.4891 149.025 40.4927 149.025 40.4964C149.025 40.5001 149.025 40.5038 149.025 40.5075C149.025 40.5112 149.025 40.5149 149.025 40.5186C149.025 40.5223 149.025 40.526 149.025 40.5297C149.025 40.5334 149.025 40.5372 149.025 40.5409C149.025 40.5446 149.025 40.5483 149.025 40.552C149.025 40.5557 149.025 40.5594 149.025 40.5631C149.025 40.5668 149.025 40.5705 149.025 40.5742C149.025 40.578 149.025 40.5817 149.025 40.5854C149.025 40.5891 149.025 40.5928 149.025 40.5965C149.025 40.6003 149.025 40.604 149.025 40.6077C149.025 40.6114 149.025 40.6151 149.025 40.6189C149.025 40.6226 149.025 40.6263 149.025 40.63C149.025 40.6338 149.025 40.6375 149.025 40.6412C149.025 40.6449 149.025 40.6487 149.025 40.6524C149.025 40.6561 149.025 40.6599 149.025 40.6636C149.025 40.6673 149.025 40.6711 149.025 40.6748C149.025 40.6785 149.025 40.6823 149.025 40.686C149.025 40.6897 149.025 40.6935 149.025 40.6972C149.025 40.701 149.025 40.7047 149.025 40.7084C149.025 40.7122 149.025 40.7159 149.025 40.7197C149.025 40.7234 149.025 40.7272 149.025 40.7309C149.025 40.7346 149.025 40.7384 149.025 40.7421C149.025 40.7459 149.025 40.7496 149.025 40.7534C149.025 40.7571 149.025 40.7609 149.025 40.7646C149.025 40.7684 149.025 40.7722 149.025 40.7759C149.025 40.7797 149.025 40.7834 149.025 40.7872C149.025 40.7909 149.025 40.7947 149.025 40.7985C149.025 40.8022 149.025 40.806 149.025 40.8097C149.025 40.8135 149.025 40.8173 149.025 40.821C149.025 40.8248 149.025 40.8286 149.025 40.8323C149.025 40.8361 149.025 40.8399 149.025 40.8437C149.025 40.8474 149.025 40.8512 149.025 40.855C149.025 40.8587 149.025 40.8625 149.025 40.8663C149.025 40.8701 149.025 40.8738 149.025 40.8776C149.025 40.8814 149.025 40.8852 149.025 40.889C149.025 40.8927 149.025 40.8965 149.025 40.9003C149.025 40.9041 149.025 40.9079 149.025 40.9116C149.025 40.9154 149.025 40.9192 149.025 40.923C149.025 40.9268 149.025 40.9306 149.025 40.9344C149.025 40.9382 149.025 40.9419 149.025 40.9457C149.025 40.9495 149.025 40.9533 149.025 40.9571C149.025 40.9609 149.025 40.9647 149.025 40.9685C149.025 40.9723 149.025 40.9761 149.025 40.9799C149.025 40.9837 149.025 40.9875 149.025 40.9913C149.025 40.9951 149.025 40.9989 149.025 41.0027C149.025 41.0065 149.025 41.0103 149.025 41.0141C149.025 41.0179 149.025 41.0217 149.025 41.0255C149.025 41.0294 149.025 41.0332 149.025 41.037C149.025 41.0408 149.025 41.0446 149.025 41.0484C149.025 41.0522 149.025 41.056 149.025 41.0599C149.025 41.0637 149.025 41.0675 149.025 41.0713C149.025 41.0751 149.025 41.0789 149.025 41.0828C149.025 41.0866 149.025 41.0904 149.025 41.0942C149.025 41.098 149.025 41.1019 149.025 41.1057C149.025 41.1095 149.025 41.1133 149.025 41.1172C149.025 41.121 149.025 41.1248 149.025 41.1287C149.025 41.1325 149.025 41.1363 149.025 41.1402C149.025 41.144 149.025 41.1478 149.025 41.1517C149.025 41.1555 149.025 41.1593 149.025 41.1632C149.025 41.167 149.025 41.1708 149.025 41.1747C149.025 41.1785 149.025 41.1824 149.025 41.1862C149.025 41.19 149.025 41.1939 149.025 41.1977C149.025 41.2016 149.025 41.2054 149.025 41.2093C149.025 41.2131 149.025 41.217 149.025 41.2208C149.025 41.2247 149.025 41.2285 149.025 41.2324C149.025 41.2362 149.025 41.2401 149.025 41.2439C149.025 41.2478 149.025 41.2516 149.025 41.2555C149.025 41.2593 149.025 41.2632 149.025 41.2671C149.025 41.2709 149.025 41.2748 149.025 41.2786C149.025 41.2825 149.025 41.2864 149.025 41.2902C149.025 41.2941 149.025 41.2979 149.025 41.3018C149.025 41.3057 149.025 41.3095 149.025 41.3134C149.025 41.3173 149.025 41.3212 149.025 41.325C149.025 41.3289 149.025 41.3328 149.025 41.3366C149.025 41.3405 149.025 41.3444 149.025 41.3483C149.025 41.3521 149.025 41.356 149.025 41.3599C149.025 41.3638 149.025 41.3676 149.025 41.3715C149.025 41.3754 149.025 41.3793 149.025 41.3832C149.025 41.3871 149.025 41.3909 149.025 41.3948C149.025 41.3987 149.025 41.4026 149.025 41.4065C149.025 41.4104 149.025 41.4143 149.025 41.4181C149.025 41.422 149.025 41.4259 149.025 41.4298C149.025 41.4337 149.025 41.4376 149.025 41.4415C149.025 41.4454 149.025 41.4493 149.025 41.4532C149.025 41.4571 149.025 41.461 149.025 41.4649C149.025 41.4688 149.025 41.4727 149.025 41.4766C149.025 41.4805 149.025 41.4844 149.025 41.4883C149.025 41.4922 149.025 41.4961 149.025 41.5H151.025C151.025 41.4961 151.025 41.4922 151.025 41.4883C151.025 41.4844 151.025 41.4805 151.025 41.4766C151.025 41.4727 151.025 41.4688 151.025 41.4649C151.025 41.461 151.025 41.4571 151.025 41.4532C151.025 41.4493 151.025 41.4454 151.025 41.4415C151.025 41.4376 151.025 41.4337 151.025 41.4298C151.025 41.4259 151.025 41.422 151.025 41.4181C151.025 41.4143 151.025 41.4104 151.025 41.4065C151.025 41.4026 151.025 41.3987 151.025 41.3948C151.025 41.3909 151.025 41.3871 151.025 41.3832C151.025 41.3793 151.025 41.3754 151.025 41.3715C151.025 41.3676 151.025 41.3638 151.025 41.3599C151.025 41.356 151.025 41.3521 151.025 41.3483C151.025 41.3444 151.025 41.3405 151.025 41.3366C151.025 41.3328 151.025 41.3289 151.025 41.325C151.025 41.3212 151.025 41.3173 151.025 41.3134C151.025 41.3095 151.025 41.3057 151.025 41.3018C151.025 41.2979 151.025 41.2941 151.025 41.2902C151.025 41.2864 151.025 41.2825 151.025 41.2786C151.025 41.2748 151.025 41.2709 151.025 41.2671C151.025 41.2632 151.025 41.2593 151.025 41.2555C151.025 41.2516 151.025 41.2478 151.025 41.2439C151.025 41.2401 151.025 41.2362 151.025 41.2324C151.025 41.2285 151.025 41.2247 151.025 41.2208C151.025 41.217 151.025 41.2131 151.025 41.2093C151.025 41.2054 151.025 41.2016 151.025 41.1977C151.025 41.1939 151.025 41.19 151.025 41.1862C151.025 41.1824 151.025 41.1785 151.025 41.1747C151.025 41.1708 151.025 41.167 151.025 41.1632C151.025 41.1593 151.025 41.1555 151.025 41.1517C151.025 41.1478 151.025 41.144 151.025 41.1402C151.025 41.1363 151.025 41.1325 151.025 41.1287C151.025 41.1248 151.025 41.121 151.025 41.1172C151.025 41.1133 151.025 41.1095 151.025 41.1057C151.025 41.1019 151.025 41.098 151.025 41.0942C151.025 41.0904 151.025 41.0866 151.025 41.0828C151.025 41.0789 151.025 41.0751 151.025 41.0713C151.025 41.0675 151.025 41.0637 151.025 41.0599C151.025 41.056 151.025 41.0522 151.025 41.0484C151.025 41.0446 151.025 41.0408 151.025 41.037C151.025 41.0332 151.025 41.0294 151.025 41.0255C151.025 41.0217 151.025 41.0179 151.025 41.0141C151.025 41.0103 151.025 41.0065 151.025 41.0027C151.025 40.9989 151.025 40.9951 151.025 40.9913C151.025 40.9875 151.025 40.9837 151.025 40.9799C151.025 40.9761 151.025 40.9723 151.025 40.9685C151.025 40.9647 151.025 40.9609 151.025 40.9571C151.025 40.9533 151.025 40.9495 151.025 40.9457C151.025 40.9419 151.025 40.9382 151.025 40.9344C151.025 40.9306 151.025 40.9268 151.025 40.923C151.025 40.9192 151.025 40.9154 151.025 40.9116C151.025 40.9079 151.025 40.9041 151.025 40.9003C151.025 40.8965 151.025 40.8927 151.025 40.889C151.025 40.8852 151.025 40.8814 151.025 40.8776C151.025 40.8738 151.025 40.8701 151.025 40.8663C151.025 40.8625 151.025 40.8587 151.025 40.855C151.025 40.8512 151.025 40.8474 151.025 40.8437C151.025 40.8399 151.025 40.8361 151.025 40.8323C151.025 40.8286 151.025 40.8248 151.025 40.821C151.025 40.8173 151.025 40.8135 151.025 40.8097C151.025 40.806 151.025 40.8022 151.025 40.7985C151.025 40.7947 151.025 40.7909 151.025 40.7872C151.025 40.7834 151.025 40.7797 151.025 40.7759C151.025 40.7722 151.025 40.7684 151.025 40.7646C151.025 40.7609 151.025 40.7571 151.025 40.7534C151.025 40.7496 151.025 40.7459 151.025 40.7421C151.025 40.7384 151.025 40.7346 151.025 40.7309C151.025 40.7272 151.025 40.7234 151.025 40.7197C151.025 40.7159 151.025 40.7122 151.025 40.7084C151.025 40.7047 151.025 40.701 151.025 40.6972C151.025 40.6935 151.025 40.6897 151.025 40.686C151.025 40.6823 151.025 40.6785 151.025 40.6748C151.025 40.6711 151.025 40.6673 151.025 40.6636C151.025 40.6599 151.025 40.6561 151.025 40.6524C151.025 40.6487 151.025 40.6449 151.025 40.6412C151.025 40.6375 151.025 40.6338 151.025 40.63C151.025 40.6263 151.025 40.6226 151.025 40.6189C151.025 40.6151 151.025 40.6114 151.025 40.6077C151.025 40.604 151.025 40.6003 151.025 40.5965C151.025 40.5928 151.025 40.5891 151.025 40.5854C151.025 40.5817 151.025 40.578 151.025 40.5742C151.025 40.5705 151.025 40.5668 151.025 40.5631C151.025 40.5594 151.025 40.5557 151.025 40.552C151.025 40.5483 151.025 40.5446 151.025 40.5409C151.025 40.5372 151.025 40.5334 151.025 40.5297C151.025 40.526 151.025 40.5223 151.025 40.5186C151.025 40.5149 151.025 40.5112 151.025 40.5075C151.025 40.5038 151.025 40.5001 151.025 40.4964C151.025 40.4927 151.025 40.4891 151.025 40.4854C151.025 40.4817 151.025 40.478 151.025 40.4743C151.025 40.4706 151.025 40.4669 151.025 40.4632C151.025 40.4595 151.025 40.4558 151.025 40.4521C151.025 40.4485 151.025 40.4448 151.025 40.4411C151.025 40.4374 151.025 40.4337 151.025 40.43C151.025 40.4264 151.025 40.4227 151.025 40.419C151.025 40.4153 151.025 40.4116 151.025 40.408C151.025 40.4043 151.025 40.4006 151.025 40.3969C151.025 40.3933 151.025 40.3896 151.025 40.3859C151.025 40.3822 151.025 40.3786 151.025 40.3749C151.025 40.3712 151.025 40.3676 151.025 40.3639C151.025 40.3602 151.025 40.3566 151.025 40.3529C151.025 40.3492 151.025 40.3456 151.025 40.3419C151.025 40.3382 151.025 40.3346 151.025 40.3309C151.025 40.3272 151.025 40.3236 151.025 40.3199C151.025 40.3163 151.025 40.3126 151.025 40.309C151.025 40.3053 151.025 40.3016 151.025 40.298C151.025 40.2943 151.025 40.2907 151.025 40.287C151.025 40.2834 151.025 40.2797 151.025 40.2761C151.025 40.2724 151.025 40.2688 151.025 40.2651C151.025 40.2615 151.025 40.2579 151.025 40.2542C151.025 40.2506 151.025 40.2469 151.025 40.2433C151.025 40.2396 151.025 40.236 151.025 40.2324C151.025 40.2287 151.025 40.2251 151.025 40.2214C151.025 40.2178 151.025 40.2142 151.025 40.2105C151.025 40.2069 151.025 40.2033 151.025 40.1996C151.025 40.196 151.025 40.1924 151.025 40.1887C151.025 40.1851 151.025 40.1815 151.025 40.1779C151.025 40.1742 151.025 40.1706 151.025 40.167C151.025 40.1634 151.025 40.1597 151.025 40.1561C151.025 40.1525 151.025 40.1489 151.025 40.1452C151.025 40.1416 151.025 40.138 151.025 40.1344C151.025 40.1308 151.025 40.1272 151.025 40.1235C151.025 40.1199 151.025 40.1163 151.025 40.1127C151.025 40.1091 151.025 40.1055 151.025 40.1019C151.025 40.0983 151.025 40.0946 151.025 40.091C151.025 40.0874 151.025 40.0838 151.025 40.0802C151.025 40.0766 151.025 40.073 151.025 40.0694C151.025 40.0658 151.025 40.0622 151.025 40.0586C151.025 40.055 151.025 40.0514 151.025 40.0478C151.025 40.0442 151.025 40.0406 151.025 40.037C151.025 40.0334 151.025 40.0298 151.025 40.0262C151.025 40.0226 151.025 40.019 151.025 40.0154C151.025 40.0118 151.025 40.0083 151.025 40.0047C151.025 40.0011 151.025 39.9975 151.025 39.9939C151.025 39.9903 151.025 39.9867 151.025 39.9831C151.025 39.9796 151.025 39.976 151.025 39.9724C151.025 39.9688 151.025 39.9652 151.025 39.9617C151.025 39.9581 151.025 39.9545 151.025 39.9509C151.025 39.9473 151.025 39.9438 151.025 39.9402C151.025 39.9366 151.025 39.933 151.025 39.9295C151.025 39.9259 151.025 39.9223 151.025 39.9188C151.025 39.9152 151.025 39.9116 151.025 39.908C151.025 39.9045 151.025 39.9009 151.025 39.8974C151.025 39.8938 151.025 39.8902 151.025 39.8867C151.025 39.8831 151.025 39.8795 151.025 39.876C151.025 39.8724 151.025 39.8689 151.025 39.8653C151.025 39.8617 151.025 39.8582 151.025 39.8546C151.025 39.8511 151.025 39.8475 151.025 39.844C151.025 39.8404 151.025 39.8369 151.025 39.8333C151.025 39.8298 151.025 39.8262 151.025 39.8227C151.025 39.8191 151.025 39.8156 151.025 39.812C151.025 39.8085 151.025 39.8049 151.025 39.8014C151.025 39.7978 151.025 39.7943 151.025 39.7907C151.025 39.7872 151.025 39.7837 151.025 39.7801C151.025 39.7766 151.025 39.7731 151.025 39.7695C151.025 39.766 151.025 39.7624 151.025 39.7589C151.025 39.7554 151.025 39.7518 151.025 39.7483C151.025 39.7448 151.025 39.7412 151.025 39.7377C151.025 39.7342 151.025 39.7307 151.025 39.7271C151.025 39.7236 151.025 39.7201 151.025 39.7166C151.025 39.713 151.025 39.7095 151.025 39.706C151.025 39.7025 151.025 39.6989 151.025 39.6954C151.025 39.6919 151.025 39.6884 151.025 39.6849C151.025 39.6813 151.025 39.6778 151.025 39.6743C151.025 39.6708 151.025 39.6673 151.025 39.6638C151.025 39.6603 151.025 39.6567 151.025 39.6532C151.025 39.6497 151.025 39.6462 151.025 39.6427C151.025 39.6392 151.025 39.6357 151.025 39.6322C151.025 39.6287 151.025 39.6252 151.025 39.6217C151.025 39.6182 151.025 39.6147 151.025 39.6112C151.025 39.6077 151.025 39.6042 151.025 39.6007C151.025 39.5972 151.025 39.5937 151.025 39.5902C151.025 39.5867 151.025 39.5832 151.025 39.5797C151.025 39.5762 151.025 39.5727 151.025 39.5692C151.025 39.5657 151.025 39.5622 151.025 39.5587C151.025 39.5553 151.025 39.5518 151.025 39.5483C151.025 39.5448 151.025 39.5413 151.025 39.5378C151.025 39.5343 151.025 39.5309 151.025 39.5274C151.025 39.5239 151.025 39.5204 151.025 39.5169C151.025 39.5135 151.025 39.51 151.025 39.5065C151.025 39.503 151.025 39.4995 151.025 39.4961C151.025 39.4926 151.025 39.4891 151.025 39.4856C151.025 39.4822 151.025 39.4787 151.025 39.4752C151.025 39.4718 151.025 39.4683 151.025 39.4648C151.025 39.4614 151.025 39.4579 151.025 39.4544C151.025 39.451 151.025 39.4475 151.025 39.444C151.025 39.4406 151.025 39.4371 151.025 39.4337C151.025 39.4302 151.025 39.4267 151.025 39.4233C151.025 39.4198 151.025 39.4164 151.025 39.4129C151.025 39.4094 151.025 39.406 151.025 39.4025C151.025 39.3991 151.025 39.3956 151.025 39.3922C151.025 39.3887 151.025 39.3853 151.025 39.3818C151.025 39.3784 151.025 39.3749 151.025 39.3715C151.025 39.368 151.025 39.3646 151.025 39.3612C151.025 39.3577 151.025 39.3543 151.025 39.3508C151.025 39.3474 151.025 39.344 151.025 39.3405C151.025 39.3371 151.025 39.3336 151.025 39.3302C151.025 39.3268 151.025 39.3233 151.025 39.3199C151.025 39.3165 151.025 39.313 151.025 39.3096C151.025 39.3062 151.025 39.3027 151.025 39.2993C151.025 39.2959 151.025 39.2924 151.025 39.289C151.025 39.2856 151.025 39.2822 151.025 39.2787C151.025 39.2753 151.025 39.2719 151.025 39.2685C151.025 39.265 151.025 39.2616 151.025 39.2582C151.025 39.2548 151.025 39.2514 151.025 39.2479C151.025 39.2445 151.025 39.2411 151.025 39.2377C151.025 39.2343 151.025 39.2309 151.025 39.2275C151.025 39.224 151.025 39.2206 151.025 39.2172C151.025 39.2138 151.025 39.2104 151.025 39.207C151.025 39.2036 151.025 39.2002 151.025 39.1968C151.025 39.1934 151.025 39.19 151.025 39.1866C151.025 39.1832 151.025 39.1798 151.025 39.1764C151.025 39.173 151.025 39.1696 151.025 39.1662C151.025 39.1628 151.025 39.1594 151.025 39.156C151.025 39.1526 151.025 39.1492 151.025 39.1458C151.025 39.1424 151.025 39.139 151.025 39.1356C151.025 39.1322 151.025 39.1288 151.025 39.1254C151.025 39.122 151.025 39.1187 151.025 39.1153C151.025 39.1119 151.025 39.1085 151.025 39.1051C151.025 39.1017 151.025 39.0983 151.025 39.095C151.025 39.0916 151.025 39.0882 151.025 39.0848C151.025 39.0814 151.025 39.0781 151.025 39.0747C151.025 39.0713 151.025 39.0679 151.025 39.0646C151.025 39.0612 151.025 39.0578 151.025 39.0544C151.025 39.0511 151.025 39.0477 151.025 39.0443C151.025 39.041 151.025 39.0376 151.025 39.0342C151.025 39.0309 151.025 39.0275 151.025 39.0241C151.025 39.0208 151.025 39.0174 151.025 39.014C151.025 39.0107 151.025 39.0073 151.025 39.0039C151.025 39.0006 151.025 38.9972 151.025 38.9939C151.025 38.9905 151.025 38.9872 151.025 38.9838C151.025 38.9804 151.025 38.9771 151.025 38.9737C151.025 38.9704 151.025 38.967 151.025 38.9637C151.025 38.9603 151.025 38.957 151.025 38.9536C151.025 38.9503 151.025 38.9469 151.025 38.9436C151.025 38.9402 151.025 38.9369 151.025 38.9336C151.025 38.9302 151.025 38.9269 151.025 38.9235C151.025 38.9202 151.025 38.9169 151.025 38.9135C151.025 38.9102 151.025 38.9068 151.025 38.9035C151.025 38.9002 151.025 38.8968 151.025 38.8935C151.025 38.8902 151.025 38.8868 151.025 38.8835C151.025 38.8802 151.025 38.8768 151.025 38.8735C151.025 38.8702 151.025 38.8668 151.025 38.8635C151.025 38.8602 151.025 38.8569 151.025 38.8535C151.025 38.8502 151.025 38.8469 151.025 38.8436C151.025 38.8403 151.025 38.8369 151.025 38.8336C151.025 38.8303 151.025 38.827 151.025 38.8237C151.025 38.8203 151.025 38.817 151.025 38.8137C151.025 38.8104 151.025 38.8071 151.025 38.8038C151.025 38.8005 151.025 38.7971 151.025 38.7938C151.025 38.7905 151.025 38.7872 151.025 38.7839C151.025 38.7806 151.025 38.7773 151.025 38.774C151.025 38.7707 151.025 38.7674 151.025 38.7641C151.025 38.7608 151.025 38.7575 151.025 38.7542C151.025 38.7509 151.025 38.7476 151.025 38.7443C151.025 38.741 151.025 38.7377 151.025 38.7344C151.025 38.7311 151.025 38.7278 151.025 38.7245C151.025 38.7212 151.025 38.7179 151.025 38.7146C151.025 38.7113 151.025 38.708 151.025 38.7047C151.025 38.7015 151.025 38.6982 151.025 38.6949C151.025 38.6916 151.025 38.6883 151.025 38.685C151.025 38.6817 151.025 38.6785 151.025 38.6752C151.025 38.6719 151.025 38.6686 151.025 38.6653C151.025 38.6621 151.025 38.6588 151.025 38.6555C151.025 38.6522 151.025 38.6489 151.025 38.6457C151.025 38.6424 151.025 38.6391 151.025 38.6359C151.025 38.6326 151.025 38.6293 151.025 38.626C151.025 38.6228 151.025 38.6195 151.025 38.6162C151.025 38.613 151.025 38.6097 151.025 38.6064C151.025 38.6032 151.025 38.5999 151.025 38.5966C151.025 38.5934 151.025 38.5901 151.025 38.5869C151.025 38.5836 151.025 38.5803 151.025 38.5771C151.025 38.5738 151.025 38.5706 151.025 38.5673C151.025 38.5641 151.025 38.5608 151.025 38.5576C151.025 38.5543 151.025 38.5511 151.025 38.5478C151.025 38.5445 151.025 38.5413 151.025 38.5381C151.025 38.5348 151.025 38.5316 151.025 38.5283C151.025 38.5251 151.025 38.5218 151.025 38.5186C151.025 38.5153 151.025 38.5121 151.025 38.5088C151.025 38.5056 151.025 38.5024 151.025 38.4991C151.025 38.4959 151.025 38.4927 151.025 38.4894C151.025 38.4862 151.025 38.4829 151.025 38.4797C151.025 38.4765 151.025 38.4732 151.025 38.47C151.025 38.4668 151.025 38.4636 151.025 38.4603C151.025 38.4571 151.025 38.4539 151.025 38.4506C151.025 38.4474 151.025 38.4442 151.025 38.441C151.025 38.4377 151.025 38.4345 151.025 38.4313C151.025 38.4281 151.025 38.4249 151.025 38.4216C151.025 38.4184 151.025 38.4152 151.025 38.412C151.025 38.4088 151.025 38.4055 151.025 38.4023C151.025 38.3991 151.025 38.3959 151.025 38.3927C151.025 38.3895 151.025 38.3863 151.025 38.3831C151.025 38.3798 151.025 38.3766 151.025 38.3734C151.025 38.3702 151.025 38.367 151.025 38.3638C151.025 38.3606 151.025 38.3574 151.025 38.3542C151.025 38.351 151.025 38.3478 151.025 38.3446C151.025 38.3414 151.025 38.3382 151.025 38.335C151.025 38.3318 151.025 38.3286 151.025 38.3254C151.025 38.3222 151.025 38.319 151.025 38.3158C151.025 38.3126 151.025 38.3094 151.025 38.3062C151.025 38.303 151.025 38.2999 151.025 38.2967C151.025 38.2935 151.025 38.2903 151.025 38.2871C151.025 38.2839 151.025 38.2807 151.025 38.2776C151.025 38.2744 151.025 38.2712 151.025 38.268C151.025 38.2648 151.025 38.2616 151.025 38.2585C151.025 38.2553 151.025 38.2521 151.025 38.2489C151.025 38.2458 151.025 38.2426 151.025 38.2394C151.025 38.2362 151.025 38.2331 151.025 38.2299C151.025 38.2267 151.025 38.2235 151.025 38.2204C151.025 38.2172 151.025 38.214 151.025 38.2109C151.025 38.2077 151.025 38.2045 151.025 38.2014C151.025 38.1982 151.025 38.195 151.025 38.1919C151.025 38.1887 151.025 38.1856 151.025 38.1824C151.025 38.1792 151.025 38.1761 151.025 38.1729C151.025 38.1698 151.025 38.1666 151.025 38.1635C151.025 38.1603 151.025 38.1571 151.025 38.154C151.025 38.1508 151.025 38.1477 151.025 38.1445C151.025 38.1414 151.025 38.1382 151.025 38.1351C151.025 38.1319 151.025 38.1288 151.025 38.1256C151.025 38.1225 151.025 38.1194 151.025 38.1162C151.025 38.1131 151.025 38.1099 151.025 38.1068C151.025 38.1036 151.025 38.1005 151.025 38.0974C151.025 38.0942 151.025 38.0911 151.025 38.088C151.025 38.0848 151.025 38.0817 151.025 38.0785C151.025 38.0754 151.025 38.0723 151.025 38.0692C151.025 38.066 151.025 38.0629 151.025 38.0598C151.025 38.0566 151.025 38.0535 151.025 38.0504C151.025 38.0473 151.025 38.0441 151.025 38.041C151.025 38.0379 151.025 38.0348 151.025 38.0316C151.025 38.0285 151.025 38.0254 151.025 38.0223C151.025 38.0191 151.025 38.016 151.025 38.0129C151.025 38.0098 151.025 38.0067 151.025 38.0036C151.025 38.0005 151.025 37.9973 151.025 37.9942C151.025 37.9911 151.025 37.988 151.025 37.9849C151.025 37.9818 151.025 37.9787 151.025 37.9756C151.025 37.9725 151.025 37.9694 151.025 37.9662C151.025 37.9631 151.025 37.96 151.025 37.9569C151.025 37.9538 151.025 37.9507 151.025 37.9476C151.025 37.9445 151.025 37.9414 151.025 37.9383C151.025 37.9352 151.025 37.9321 151.025 37.929C151.025 37.9259 151.025 37.9229 151.025 37.9198C151.025 37.9167 151.025 37.9136 151.025 37.9105C151.025 37.9074 151.025 37.9043 151.025 37.9012C151.025 37.8981 151.025 37.895 151.025 37.892C151.025 37.8889 151.025 37.8858 151.025 37.8827C151.025 37.8796 151.025 37.8765 151.025 37.8735C151.025 37.8704 151.025 37.8673 151.025 37.8642C151.025 37.8611 151.025 37.8581 151.025 37.855C151.025 37.8519 151.025 37.8488 151.025 37.8458C151.025 37.8427 151.025 37.8396 151.025 37.8365C151.025 37.8335 151.025 37.8304 151.025 37.8273C151.025 37.8243 151.025 37.8212 151.025 37.8181C151.025 37.815 151.025 37.812 151.025 37.8089C151.025 37.8059 151.025 37.8028 151.025 37.7997C151.025 37.7967 151.025 37.7936 151.025 37.7905C151.025 37.7875 151.025 37.7844 151.025 37.7814C151.025 37.7783 151.025 37.7753 151.025 37.7722C151.025 37.7691 151.025 37.7661 151.025 37.763C151.025 37.76 151.025 37.7569 151.025 37.7539C151.025 37.7508 151.025 37.7478 151.025 37.7447C151.025 37.7417 151.025 37.7386 151.025 37.7356C151.025 37.7325 151.025 37.7295 151.025 37.7265C151.025 37.7234 151.025 37.7204 151.025 37.7173C151.025 37.7143 151.025 37.7113 151.025 37.7082C151.025 37.7052 151.025 37.7021 151.025 37.6991C151.025 37.6961 151.025 37.693 151.025 37.69C151.025 37.687 151.025 37.6839 151.025 37.6809C151.025 37.6779 151.025 37.6748 151.025 37.6718C151.025 37.6688 151.025 37.6658 151.025 37.6627C151.025 37.6597 151.025 37.6567 151.025 37.6537C151.025 37.6506 151.025 37.6476 151.025 37.6446C151.025 37.6416 151.025 37.6385 151.025 37.6355C151.025 37.6325 151.025 37.6295 151.025 37.6265C151.025 37.6235 151.025 37.6204 151.025 37.6174C151.025 37.6144 151.025 37.6114 151.025 37.6084C151.025 37.6054 151.025 37.6024 151.025 37.5993C151.025 37.5963 151.025 37.5933 151.025 37.5903C151.025 37.5873 151.025 37.5843 151.025 37.5813C151.025 37.5783 151.025 37.5753 151.025 37.5723C151.025 37.5693 151.025 37.5663 151.025 37.5633C151.025 37.5603 151.025 37.5573 151.025 37.5543C151.025 37.5513 151.025 37.5483 151.025 37.5453C151.025 37.5423 151.025 37.5393 151.025 37.5363C151.025 37.5333 151.025 37.5303 151.025 37.5273C151.025 37.5244 151.025 37.5214 151.025 37.5184C151.025 37.5154 151.025 37.5124 151.025 37.5094C151.025 37.5064 151.025 37.5034 151.025 37.5005C151.025 37.4975 151.025 37.4945 151.025 37.4915C151.025 37.4885 151.025 37.4856 151.025 37.4826C151.025 37.4796 151.025 37.4766 151.025 37.4736C151.025 37.4707 151.025 37.4677 151.025 37.4647C151.025 37.4617 151.025 37.4588 151.025 37.4558C151.025 37.4528 151.025 37.4499 151.025 37.4469C151.025 37.4439 151.025 37.4409 151.025 37.438C151.025 37.435 151.025 37.432 151.025 37.4291C151.025 37.4261 151.025 37.4232 151.025 37.4202C151.025 37.4172 151.025 37.4143 151.025 37.4113C151.025 37.4084 151.025 37.4054 151.025 37.4024C151.025 37.3995 151.025 37.3965 151.025 37.3936C151.025 37.3906 151.025 37.3877 151.025 37.3847C151.025 37.3818 151.025 37.3788 151.025 37.3759C151.025 37.3729 151.025 37.37 151.025 37.367C151.025 37.3641 151.025 37.3611 151.025 37.3582C151.025 37.3552 151.025 37.3523 151.025 37.3493C151.025 37.3464 151.025 37.3434 151.025 37.3405C151.025 37.3376 151.025 37.3346 151.025 37.3317C151.025 37.3287 151.025 37.3258 151.025 37.3229C151.025 37.3199 151.025 37.317 151.025 37.3141C151.025 37.3111 151.025 37.3082 151.025 37.3053C151.025 37.3023 151.025 37.2994 151.025 37.2965C151.025 37.2936 151.025 37.2906 151.025 37.2877C151.025 37.2848 151.025 37.2819 151.025 37.2789C151.025 37.276 151.025 37.2731 151.025 37.2702C151.025 37.2672 151.025 37.2643 151.025 37.2614C151.025 37.2585 151.025 37.2556 151.025 37.2526C151.025 37.2497 151.025 37.2468 151.025 37.2439C151.025 37.241 151.025 37.2381 151.025 37.2352C151.025 37.2322 151.025 37.2293 151.025 37.2264C151.025 37.2235 151.025 37.2206 151.025 37.2177C151.025 37.2148 151.025 37.2119 151.025 37.209C151.025 37.2061 151.025 37.2032 151.025 37.2003C151.025 37.1974 151.025 37.1945 151.025 37.1916C151.025 37.1887 151.025 37.1858 151.025 37.1829C151.025 37.18 151.025 37.1771 151.025 37.1742C151.025 37.1713 151.025 37.1684 151.025 37.1655C151.025 37.1626 151.025 37.1597 151.025 37.1568C151.025 37.1539 151.025 37.151 151.025 37.1482C151.025 37.1453 151.025 37.1424 151.025 37.1395C151.025 37.1366 151.025 37.1337 151.025 37.1308C151.025 37.128 151.025 37.1251 151.025 37.1222C151.025 37.1193 151.025 37.1164 151.025 37.1136C151.025 37.1107 151.025 37.1078 151.025 37.1049C151.025 37.102 151.025 37.0992 151.025 37.0963C151.025 37.0934 151.025 37.0905 151.025 37.0877C151.025 37.0848 151.025 37.0819 151.025 37.0791C151.025 37.0762 151.025 37.0733 151.025 37.0705C151.025 37.0676 151.025 37.0647 151.025 37.0619C151.025 37.059 151.025 37.0561 151.025 37.0533C151.025 37.0504 151.025 37.0476 151.025 37.0447C151.025 37.0418 151.025 37.039 151.025 37.0361C151.025 37.0333 151.025 37.0304 151.025 37.0275C151.025 37.0247 151.025 37.0218 151.025 37.019C151.025 37.0161 151.025 37.0133 151.025 37.0104C151.025 37.0076 151.025 37.0047 151.025 37.0019C151.025 36.999 151.025 36.9962 151.025 36.9933C151.025 36.9905 151.025 36.9877 151.025 36.9848C151.025 36.982 151.025 36.9791 151.025 36.9763C151.025 36.9735 151.025 36.9706 151.025 36.9678C151.025 36.9649 151.025 36.9621 151.025 36.9593C151.025 36.9564 151.025 36.9536 151.025 36.9508C151.025 36.9479 151.025 36.9451 151.025 36.9423C151.025 36.9394 151.025 36.9366 151.025 36.9338C151.025 36.9309 151.025 36.9281 151.025 36.9253C151.025 36.9225 151.025 36.9196 151.025 36.9168C151.025 36.914 151.025 36.9112 151.025 36.9083C151.025 36.9055 151.025 36.9027 151.025 36.8999C151.025 36.8971 151.025 36.8943 151.025 36.8914C151.025 36.8886 151.025 36.8858 151.025 36.883C151.025 36.8802 151.025 36.8774 151.025 36.8745C151.025 36.8717 151.025 36.8689 151.025 36.8661C151.025 36.8633 151.025 36.8605 151.025 36.8577C151.025 36.8549 151.025 36.8521 151.025 36.8493C151.025 36.8465 151.025 36.8437 151.025 36.8409C151.025 36.8381 151.025 36.8353 151.025 36.8325C151.025 36.8297 151.025 36.8269 151.025 36.8241C151.025 36.8213 151.025 36.8185 151.025 36.8157C151.025 36.8129 151.025 36.8101 151.025 36.8073C151.025 36.8045 151.025 36.8017 151.025 36.7989C151.025 36.7961 151.025 36.7933 151.025 36.7905C151.025 36.7878 151.025 36.785 151.025 36.7822C151.025 36.7794 151.025 36.7766 151.025 36.7738C151.025 36.7711 151.025 36.7683 151.025 36.7655C151.025 36.7627 151.025 36.7599 151.025 36.7571C151.025 36.7544 151.025 36.7516 151.025 36.7488C151.025 36.746 151.025 36.7433 151.025 36.7405C151.025 36.7377 151.025 36.7349 151.025 36.7322C151.025 36.7294 151.025 36.7266 151.025 36.7239C151.025 36.7211 151.025 36.7183 151.025 36.7156C151.025 36.7128 151.025 36.71 151.025 36.7073C151.025 36.7045 151.025 36.7017 151.025 36.699C151.025 36.6962 151.025 36.6935 151.025 36.6907C151.025 36.6879 151.025 36.6852 151.025 36.6824C151.025 36.6797 151.025 36.6769 151.025 36.6742C151.025 36.6714 151.025 36.6686 151.025 36.6659C151.025 36.6631 151.025 36.6604 151.025 36.6576C151.025 36.6549 151.025 36.6521 151.025 36.6494C151.025 36.6466 151.025 36.6439 151.025 36.6412C151.025 36.6384 151.025 36.6357 151.025 36.6329C151.025 36.6302 151.025 36.6274 151.025 36.6247C151.025 36.622 151.025 36.6192 151.025 36.6165C151.025 36.6137 151.025 36.611 151.025 36.6083C151.025 36.6055 151.025 36.6028 151.025 36.6001C151.025 36.5973 151.025 36.5946 151.025 36.5919C151.025 36.5891 151.025 36.5864 151.025 36.5837C151.025 36.5809 151.025 36.5782 151.025 36.5755C151.025 36.5728 151.025 36.57 151.025 36.5673C151.025 36.5646 151.025 36.5619 151.025 36.5592C151.025 36.5564 151.025 36.5537 151.025 36.551C151.025 36.5483 151.025 36.5456 151.025 36.5428C151.025 36.5401 151.025 36.5374 151.025 36.5347C151.025 36.532 151.025 36.5293 151.025 36.5266C151.025 36.5238 151.025 36.5211 151.025 36.5184C151.025 36.5157 151.025 36.513 151.025 36.5103C151.025 36.5076 151.025 36.5049 151.025 36.5022C151.025 36.4995 151.025 36.4968 151.025 36.4941C151.025 36.4914 151.025 36.4887 151.025 36.486C151.025 36.4833 151.025 36.4806 151.025 36.4779C151.025 36.4752 151.025 36.4725 151.025 36.4698C151.025 36.4671 151.025 36.4644 151.025 36.4617C151.025 36.459 151.025 36.4563 151.025 36.4536C151.025 36.4509 151.025 36.4482 151.025 36.4456C151.025 36.4429 151.025 36.4402 151.025 36.4375H149.025ZM149.025 41.5208C149.067 43.5061 149.067 45.6388 149.025 47.9193L151.025 47.9557C151.067 45.6528 151.067 43.4939 151.025 41.4792L149.025 41.5208ZM149.932 48.9332C153.051 49.2243 155.47 49.4934 157.196 49.7399L157.479 47.7601C155.705 47.5066 153.249 47.234 150.118 46.9418L149.932 48.9332ZM157.196 49.7399C158.068 49.8644 158.719 49.9665 159.159 50.0464C159.38 50.0867 159.533 50.1186 159.626 50.142C159.675 50.1542 159.689 50.1594 159.681 50.1566C159.677 50.1553 159.652 50.1462 159.615 50.1278C159.593 50.1169 159.489 50.0652 159.38 49.9571L160.795 48.5429C160.676 48.4244 160.555 48.3616 160.509 48.339C160.449 48.3088 160.394 48.2874 160.354 48.2731C160.273 48.2443 160.188 48.2208 160.111 48.2017C159.955 48.1626 159.753 48.1216 159.516 48.0786C159.039 47.9918 158.357 47.8856 157.479 47.7601L157.196 49.7399ZM159.38 49.9571C159.318 49.895 159.289 49.8384 159.278 49.8129C159.267 49.7885 159.269 49.785 159.275 49.8144C159.286 49.8783 159.295 50.0107 159.278 50.2358L161.272 50.3892C161.296 50.0726 161.295 49.7571 161.244 49.4668C161.195 49.1872 161.081 48.8293 160.795 48.5429L159.38 49.9571ZM159.278 50.2295C159.243 50.6564 159.152 51.1591 158.996 51.7423L160.929 52.2577C161.107 51.5909 161.224 50.9686 161.272 50.3955L159.278 50.2295ZM158.996 51.7423C158.842 52.3217 158.649 52.8803 158.418 53.4186L160.257 54.2064C160.526 53.578 160.75 52.9283 160.929 52.2577L158.996 51.7423ZM158.43 53.3934C158.321 53.6281 158.225 53.7948 158.146 53.9077C158.063 54.025 158.021 54.051 158.033 54.0429L159.142 55.7071C159.635 55.3784 159.981 54.8049 160.245 54.2316L158.43 53.3934ZM158.216 53.9465C158.258 53.9299 158.247 53.9389 158.118 53.9647C158.01 53.9863 157.858 54.0123 157.658 54.0423C157.258 54.1023 156.699 54.1736 155.974 54.2565L156.201 56.2435C156.935 56.1597 157.521 56.0852 157.955 56.0202C158.171 55.9877 158.358 55.9564 158.51 55.9259C158.641 55.8996 158.813 55.8618 158.959 55.8035L158.216 53.9465ZM156 54.2539C154.603 54.3771 152.598 54.5013 149.977 54.6261L150.073 56.6239C152.702 56.4987 154.738 56.3729 156.175 56.2461L156 54.2539ZM149.025 55.625C149.025 57.4089 149.004 59.1718 148.963 60.9137L150.962 60.9613C151.004 59.2032 151.025 57.4244 151.025 55.625H149.025ZM148.962 60.9375C148.962 62.6798 148.942 64.2743 148.9 65.7214L150.9 65.7786C150.942 64.3091 150.962 62.6952 150.962 60.9375H148.962ZM149.89 66.7499C153.929 66.7916 156.842 66.8748 158.644 66.9977L158.781 65.0023C156.916 64.8752 153.954 64.7917 149.91 64.7501L149.89 66.7499ZM158.668 66.999C159.597 67.0403 160.291 67.091 160.763 67.1488C161.001 67.178 161.159 67.2062 161.251 67.2289C161.298 67.2404 161.307 67.2455 161.292 67.2394C161.284 67.236 161.259 67.2254 161.225 67.2053C161.193 67.1864 161.133 67.1477 161.068 67.0821L162.482 65.6679C162.323 65.5084 162.145 65.4275 162.053 65.3895C161.943 65.3444 161.83 65.3116 161.728 65.2867C161.524 65.2365 161.278 65.197 161.006 65.1637C160.457 65.0965 159.703 65.043 158.757 65.001L158.668 66.999ZM160.994 66.9997C160.881 66.8587 160.9 66.7516 160.9 66.8281C160.9 66.8977 160.883 67.0433 160.813 67.2878L162.737 67.8372C162.833 67.4983 162.9 67.1544 162.9 66.8281C162.9 66.5088 162.835 66.0997 162.556 65.7503L160.994 66.9997ZM160.797 67.353C160.694 67.8364 160.498 68.3812 160.193 68.9903L161.982 69.8847C162.344 69.1605 162.606 68.4553 162.753 67.772L160.797 67.353ZM160.181 69.0146C159.905 69.6065 159.588 70.201 159.23 70.798L160.945 71.827C161.337 71.174 161.687 70.5185 161.994 69.8604L160.181 69.0146ZM159.205 70.8419C158.876 71.4599 158.645 71.8192 158.507 71.9848L160.043 73.2652C160.322 72.9308 160.633 72.4151 160.97 71.7831L159.205 70.8419ZM158.568 71.9179C158.701 71.7843 158.835 71.7328 158.862 71.7223C158.906 71.7053 158.932 71.7005 158.925 71.7019C158.912 71.7046 158.861 71.7133 158.754 71.7222C158.546 71.7396 158.224 71.75 157.775 71.75V73.75C158.242 73.75 158.629 73.7396 158.921 73.7153C159.064 73.7034 159.211 73.686 159.344 73.6575C159.41 73.6433 159.496 73.6215 159.587 73.5863C159.661 73.5575 159.828 73.4865 159.982 73.3321L158.568 71.9179ZM157.82 71.751C156.915 71.7099 155.904 71.648 154.786 71.5652L154.639 73.5598C155.771 73.6437 156.802 73.7068 157.73 73.749L157.82 71.751ZM154.786 71.5652C153.663 71.482 152.582 71.3988 151.542 71.3157L151.383 73.3093C152.427 73.3928 153.512 73.4763 154.639 73.5598L154.786 71.5652ZM151.582 71.3196C150.529 71.1933 149.904 71.0953 149.643 71.0299L149.157 72.9701C149.562 73.0713 150.313 73.1817 151.343 73.3054L151.582 71.3196ZM149.716 71.0513C149.19 70.8759 148.6 70.5851 147.943 70.1604L146.857 71.8396C147.617 72.3316 148.36 72.7075 149.084 72.9487L149.716 71.0513ZM147.977 70.183C147.39 69.7688 146.93 69.2565 146.587 68.6394L144.838 69.6106C145.329 70.4935 145.994 71.2312 146.823 71.817L147.977 70.183ZM146.641 68.7536C146.646 68.7649 146.634 68.7353 146.607 68.6311C146.583 68.5374 146.554 68.4101 146.519 68.2456C146.449 67.9171 146.363 67.4656 146.259 66.8867L144.291 67.2383C144.396 67.8261 144.486 68.3016 144.562 68.6606C144.632 68.9874 144.705 69.2983 144.784 69.4964L146.641 68.7536ZM146.266 66.9259C146.1 65.7283 145.914 64.2161 145.706 62.3871L143.719 62.6129C143.928 64.4506 144.116 65.98 144.284 67.1991L146.266 66.9259ZM145.706 62.3871C145.499 60.5628 145.291 58.5079 145.083 56.222L143.092 56.403C143.3 58.7004 143.51 60.7706 143.719 62.6129L145.706 62.3871ZM145.083 56.222C144.875 53.9314 144.667 51.5991 144.459 49.2251L142.466 49.3999C142.675 51.7759 142.883 54.1103 143.092 56.403L145.083 56.222ZM144.459 49.2251C144.251 46.8549 144.064 44.5265 143.897 42.24L141.903 42.385C142.07 44.6818 142.258 47.0201 142.466 49.3999L144.459 49.2251ZM143.897 42.24C143.731 39.9494 143.585 37.8885 143.46 36.057L141.465 36.193C141.59 38.0282 141.736 40.0922 141.903 42.385L143.897 42.24ZM143.462 36.0806C143.379 34.2133 143.337 32.6878 143.337 31.5H141.337C141.337 32.7289 141.38 34.2867 141.463 36.1694L143.462 36.0806ZM143.337 31.5C143.337 30.8872 143.353 30.4184 143.381 30.083C143.395 29.9151 143.411 29.7953 143.426 29.7155C143.444 29.6202 143.451 29.6347 143.419 29.6972L141.631 28.8028C141.537 28.9903 141.489 29.1923 141.46 29.347C141.428 29.5172 141.405 29.7099 141.388 29.917C141.353 30.3316 141.337 30.8628 141.337 31.5H143.337ZM143.461 29.6011C143.416 29.7229 143.349 29.7805 143.34 29.7876C143.334 29.793 143.361 29.77 143.45 29.7316C143.633 29.6533 143.947 29.5651 144.433 29.4874L144.117 27.5126C143.561 27.6015 143.063 27.7217 142.662 27.8934C142.301 28.0482 141.799 28.3376 141.589 28.8989L143.461 29.6011ZM144.433 29.4874C145.419 29.3297 146.623 29.228 148.054 29.1871L147.996 27.1879C146.51 27.2304 145.214 27.337 144.117 27.5126L144.433 29.4874ZM148.082 29.1859C149.51 29.1043 151.044 29.0836 152.688 29.1247L152.737 27.1253C151.047 27.0831 149.457 27.104 147.968 27.1891L148.082 29.1859ZM152.688 29.1247C154.379 29.166 155.942 29.2483 157.377 29.3713L157.548 27.3787C156.066 27.2517 154.462 27.1674 152.737 27.1253L152.688 29.1247ZM157.405 29.3734C158.842 29.4555 160.033 29.5776 160.986 29.7364L161.314 27.7636C160.267 27.5891 159 27.4612 157.52 27.3766L157.405 29.3734ZM161.026 29.7423C161.514 29.8033 161.869 29.8612 162.105 29.9137C162.224 29.9402 162.291 29.9605 162.32 29.971C162.334 29.9761 162.324 29.9735 162.3 29.9605C162.281 29.9505 162.21 29.9119 162.13 29.8321L163.545 28.4179C163.349 28.2218 163.111 28.1304 163.003 28.0915C162.861 28.0395 162.701 27.9973 162.539 27.9613C162.212 27.8888 161.786 27.8217 161.274 27.7577L161.026 29.7423ZM162.057 29.7497C162.01 29.6917 162 29.655 162.007 29.6738C162.013 29.6897 162.026 29.7325 162.04 29.812C162.068 29.9733 162.087 30.2177 162.087 30.5625H164.087C164.087 30.1573 164.065 29.7871 164.01 29.4693C163.96 29.1797 163.862 28.8045 163.618 28.5003L162.057 29.7497ZM162.089 30.618C162.126 31.2917 162.09 32.06 161.972 32.9274L163.953 33.1976C164.085 32.2317 164.132 31.3333 164.086 30.507L162.089 30.618ZM161.967 32.9677C161.888 33.794 161.751 34.5988 161.555 35.3825L163.495 35.8675C163.716 34.9845 163.87 34.081 163.958 33.1573L161.967 32.9677ZM161.546 35.419C161.469 35.7883 161.391 36.0683 161.318 36.2707C161.241 36.4871 161.189 36.5534 161.194 36.5473L162.731 37.8277C162.944 37.5716 163.091 37.2525 163.2 36.9481C163.315 36.6296 163.415 36.2534 163.504 35.831L161.546 35.419ZM177.55 67L178.523 66.7691L178.517 66.7441L178.51 66.7194L177.55 67ZM174.987 57.4375L175.958 57.195L175.957 57.1919L174.987 57.4375ZM172.237 46L171.263 46.2255L172.237 46ZM168.925 30.5H167.925V30.599L167.944 30.6961L168.925 30.5ZM169.612 29.0625L170.376 29.7084L170.388 29.6946L170.399 29.6803L169.612 29.0625ZM171.237 27.4375L170.637 26.6375L170.625 26.6469L170.613 26.6566L171.237 27.4375ZM175.112 25.5625L175.865 24.904L175.566 24.5625H175.112V25.5625ZM176.3 29.8125L177.282 29.6236L177.281 29.6164L176.3 29.8125ZM177.05 33.875L176.066 34.0517L176.068 34.0638L176.07 34.0759L177.05 33.875ZM178.112 39.9375L177.124 40.0908L177.125 40.0935L178.112 39.9375ZM180.925 59.5L179.934 59.636L181.915 59.6434L180.925 59.5ZM182.175 51.375L183.162 51.5368L183.162 51.5342L182.175 51.375ZM183.3 44.5L182.316 44.3211L182.315 44.3283L182.314 44.3356L183.3 44.5ZM184.425 38.125L185.411 38.2928L185.413 38.2773L185.416 38.2616L184.425 38.125ZM184.987 34.3125L184.004 34.1336L184.001 34.1458L183.999 34.1581L184.987 34.3125ZM186.487 27.75L185.555 27.3876L185.547 27.4105L185.539 27.4338L186.487 27.75ZM187.425 26.625V27.625H187.496L187.566 27.6149L187.425 26.625ZM188.862 26.75L188.678 27.7329L188.689 27.7348L188.862 26.75ZM190.925 27.3125L190.574 28.2488L190.6 28.2586L190.627 28.267L190.925 27.3125ZM192.675 28.0625L192.171 28.9263L192.186 28.9349L192.201 28.943L192.675 28.0625ZM192.987 31.3125L192.014 31.0835L192.011 31.0971L192.008 31.1108L192.987 31.3125ZM191.675 36.75L190.708 36.4946L190.705 36.5075L191.675 36.75ZM189.8 44.125L188.832 43.8756L188.83 43.8825L188.828 43.8894L189.8 44.125ZM187.612 52.5625L186.648 52.297L186.646 52.3066L187.612 52.5625ZM183.3 68.125L184.258 68.4124L184.259 68.4072L183.3 68.125ZM181.675 73.1875L180.733 72.8531L180.728 72.8667L180.723 72.8805L181.675 73.1875ZM179.487 72.9375L178.583 73.3645L178.588 73.3744L179.487 72.9375ZM178.51 66.7194C177.723 64.0271 176.872 60.8529 175.958 57.195L174.017 57.68C174.936 61.3555 175.794 64.5562 176.59 67.2806L178.51 66.7194ZM175.957 57.1919C175.167 54.0758 174.252 50.2704 173.212 45.7745L171.263 46.2255C172.306 50.7296 173.224 54.5492 174.018 57.6831L175.957 57.1919ZM173.212 45.7745C172.173 41.2866 171.071 36.13 169.906 30.3039L167.944 30.6961C169.113 36.5367 170.219 41.7134 171.263 46.2255L173.212 45.7745ZM169.925 30.5C169.925 30.437 169.972 30.1857 170.376 29.7084L168.849 28.4166C168.336 29.0226 167.925 29.7296 167.925 30.5H169.925ZM170.399 29.6803C170.806 29.1619 171.292 28.6742 171.862 28.2184L170.613 26.6566C169.933 27.2008 169.336 27.7964 168.826 28.4447L170.399 29.6803ZM171.837 28.2375C172.464 27.7676 173.108 27.3584 173.768 27.0088L172.832 25.2412C172.076 25.6416 171.344 26.1074 170.637 26.6375L171.837 28.2375ZM173.768 27.0088C174.41 26.6689 174.845 26.5625 175.112 26.5625V24.5625C174.38 24.5625 173.607 24.8311 172.832 25.2412L173.768 27.0088ZM174.36 26.221C174.311 26.1655 174.34 26.1769 174.42 26.3813C174.489 26.556 174.571 26.8066 174.665 27.1441C174.853 27.8171 175.071 28.7682 175.319 30.0086L177.281 29.6164C177.029 28.3568 176.799 27.3495 176.591 26.6059C176.488 26.235 176.385 25.9127 176.282 25.65C176.19 25.4168 176.059 25.1261 175.865 24.904L174.36 26.221ZM175.318 30.0013C175.525 31.0792 175.774 32.429 176.066 34.0517L178.034 33.6983C177.742 32.071 177.491 30.7125 177.282 29.6237L175.318 30.0013ZM176.07 34.0759C176.399 35.6797 176.751 37.6834 177.124 40.0908L179.101 39.7842C178.724 37.3583 178.367 35.3203 178.03 33.6741L176.07 34.0759ZM177.125 40.0935C177.499 42.4623 177.915 45.2489 178.373 48.4539L180.352 48.1711C179.894 44.9594 179.476 42.1627 179.1 39.7815L177.125 40.0935ZM178.373 48.4539C178.831 51.66 179.351 55.3873 179.934 59.636L181.916 59.364C181.332 55.1127 180.811 51.3817 180.352 48.1711L178.373 48.4539ZM181.915 59.6434C182.331 56.7738 182.746 54.0716 183.162 51.5368L181.188 51.2132C180.77 53.7617 180.353 56.4762 179.935 59.3566L181.915 59.6434ZM183.162 51.5342C183.579 48.9522 183.953 46.6623 184.286 44.6644L182.314 44.3356C181.98 46.3377 181.605 48.6312 181.188 51.2158L183.162 51.5342ZM184.284 44.6789C184.701 42.3841 185.077 40.2554 185.411 38.2928L183.439 37.9572C183.107 39.9113 182.732 42.0325 182.316 44.3211L184.284 44.6789ZM185.416 38.2616C185.581 37.0598 185.768 35.7949 185.976 34.4669L183.999 34.1581C183.79 35.4968 183.602 36.7735 183.434 37.9884L185.416 38.2616ZM185.971 34.4914C186.22 33.1266 186.467 31.8895 186.714 30.7794L184.761 30.3456C184.508 31.4855 184.255 32.7484 184.004 34.1336L185.971 34.4914ZM186.714 30.7794C186.959 29.6743 187.201 28.7726 187.436 28.0662L185.539 27.4338C185.274 28.2274 185.016 29.2007 184.761 30.3456L186.714 30.7794ZM187.42 28.1124C187.548 27.7818 187.652 27.6144 187.709 27.5464C187.766 27.4781 187.672 27.625 187.425 27.625V25.625C186.844 25.625 186.428 25.9594 186.172 26.2661C185.917 26.5731 185.719 26.9682 185.555 27.3876L187.42 28.1124ZM187.566 27.6149C187.68 27.5987 188.016 27.6087 188.678 27.7329L189.047 25.7671C188.376 25.6413 187.753 25.568 187.284 25.6351L187.566 27.6149ZM188.689 27.7348C189.337 27.8492 189.965 28.0206 190.574 28.2488L191.276 26.3762C190.551 26.1044 189.804 25.9008 189.036 25.7652L188.689 27.7348ZM190.627 28.267C191.236 28.4573 191.748 28.6793 192.171 28.9263L193.179 27.1987C192.602 26.8624 191.947 26.5843 191.223 26.358L190.627 28.267ZM192.201 28.943C192.307 29 192.387 29.0506 192.447 29.0936C192.508 29.137 192.539 29.1669 192.552 29.1805C192.579 29.2097 192.487 29.124 192.487 28.9375H194.487C194.487 28.4593 194.261 28.082 194.017 27.8195C193.778 27.5619 193.47 27.3547 193.149 27.182L192.201 28.943ZM192.487 28.9375C192.487 28.8791 192.494 28.8759 192.471 29.0083C192.453 29.1115 192.425 29.2574 192.384 29.4502C192.303 29.8346 192.18 30.3778 192.014 31.0835L193.961 31.5415C194.128 30.8305 194.255 30.2696 194.341 29.8623C194.384 29.6593 194.418 29.4875 194.441 29.351C194.46 29.2439 194.487 29.0793 194.487 28.9375H192.487ZM192.008 31.1108C191.722 32.5023 191.289 34.2952 190.708 36.4946L192.642 37.0054C193.228 34.7882 193.67 32.956 193.967 31.5142L192.008 31.1108ZM190.705 36.5075C190.164 38.6713 189.539 41.1273 188.832 43.8756L190.768 44.3744C191.477 41.6227 192.103 39.162 192.645 36.9925L190.705 36.5075ZM188.828 43.8894C188.164 46.6289 187.437 49.4314 186.648 52.297L188.577 52.828C189.371 49.9436 190.103 47.1211 190.772 44.3606L188.828 43.8894ZM186.646 52.3066C185.897 55.1364 185.148 57.9036 184.399 60.6081L186.326 61.1419C187.077 58.4297 187.828 55.6552 188.579 52.8184L186.646 52.3066ZM184.399 60.6081C183.65 63.3126 182.964 65.7241 182.341 67.8428L184.259 68.4072C184.886 66.2759 185.575 63.854 186.326 61.1419L184.399 60.6081ZM182.342 67.8377C181.72 69.9132 181.183 71.5832 180.733 72.8531L182.617 73.5219C183.084 72.2084 183.63 70.5035 184.258 68.4123L182.342 67.8377ZM180.723 72.8805C180.518 73.5167 180.355 73.9583 180.232 74.229C180.203 74.2944 180.179 74.3435 180.159 74.379C180.14 74.416 180.13 74.4286 180.133 74.4252C180.135 74.4228 180.142 74.4119 180.157 74.3955C180.171 74.3798 180.197 74.3519 180.236 74.3199C180.299 74.2683 180.496 74.125 180.8 74.125V76.125C181.146 76.125 181.388 75.9616 181.5 75.8696C181.622 75.7704 181.708 75.6608 181.764 75.5827C181.877 75.4237 181.973 75.2342 182.055 75.0522C182.225 74.6771 182.415 74.15 182.627 73.4945L180.723 72.8805ZM180.8 74.125C181.118 74.125 181.314 74.2824 181.339 74.3015C181.39 74.3416 181.41 74.3687 181.394 74.3503C181.367 74.3171 181.305 74.2309 181.204 74.0636C181.009 73.7376 180.738 73.2224 180.387 72.5006L178.588 73.3744C178.946 74.1109 179.248 74.6895 179.489 75.0926C179.608 75.2899 179.731 75.4772 179.854 75.6263C179.914 75.699 180.001 75.7945 180.111 75.8802C180.194 75.9448 180.44 76.125 180.8 76.125V74.125ZM180.392 72.5105C179.724 71.0968 179.098 69.191 178.523 66.7691L176.577 67.2309C177.169 69.7256 177.834 71.7782 178.583 73.3645L180.392 72.5105Z" fill="black" mask="url(#path-6-outside-2_4_84)"/>
</svg>
